G04 #@! TF.FileFunction,Legend,Top*
%FSLAX46Y46*%
G04 Gerber Fmt 4.6, Leading zero omitted, Abs format (unit mm)*
G04 Created by KiCad (PCBNEW 4.0.1-stable) date 27/12/2015 00:21:35*
%MOMM*%
G01*
G04 APERTURE LIST*
%ADD10C,0.100000*%
%ADD11C,0.150000*%
G04 APERTURE END LIST*
D10*
D11*
X77470000Y-115570000D02*
X93980000Y-115570000D01*
X93980000Y-115570000D02*
X93980000Y-80010000D01*
X93980000Y-80010000D02*
X77470000Y-80010000D01*
X77470000Y-80010000D02*
X77470000Y-115570000D01*
X123825000Y-96520000D02*
X123825000Y-99060000D01*
X123825000Y-99060000D02*
X98425000Y-99060000D01*
X98425000Y-99060000D02*
X98425000Y-96520000D01*
X98425000Y-96520000D02*
X123825000Y-96520000D01*
X121285000Y-96520000D02*
X121285000Y-99060000D01*
X99940000Y-91305000D02*
X101210000Y-91305000D01*
X99940000Y-83955000D02*
X101210000Y-83955000D01*
X122310000Y-83955000D02*
X121040000Y-83955000D01*
X122310000Y-91305000D02*
X121040000Y-91305000D01*
X99940000Y-91305000D02*
X99940000Y-83955000D01*
X122310000Y-91305000D02*
X122310000Y-83955000D01*
X101210000Y-91305000D02*
X101210000Y-92240000D01*
X99940000Y-111625000D02*
X101210000Y-111625000D01*
X99940000Y-104275000D02*
X101210000Y-104275000D01*
X122310000Y-104275000D02*
X121040000Y-104275000D01*
X122310000Y-111625000D02*
X121040000Y-111625000D01*
X99940000Y-111625000D02*
X99940000Y-104275000D01*
X122310000Y-111625000D02*
X122310000Y-104275000D01*
X101210000Y-111625000D02*
X101210000Y-112560000D01*
X100685000Y-81945000D02*
X102235000Y-81945000D01*
X100685000Y-80645000D02*
X100685000Y-81945000D01*
X102108000Y-76454000D02*
X102108000Y-70612000D01*
X102108000Y-70612000D02*
X102362000Y-70612000D01*
X102362000Y-70612000D02*
X102362000Y-76454000D01*
X102362000Y-76454000D02*
X102235000Y-76454000D01*
X102235000Y-76454000D02*
X102235000Y-70612000D01*
X101981000Y-79121000D02*
X101981000Y-79502000D01*
X102489000Y-79121000D02*
X102489000Y-79502000D01*
X104521000Y-79121000D02*
X104521000Y-79502000D01*
X105029000Y-79121000D02*
X105029000Y-79502000D01*
X100965000Y-79121000D02*
X100965000Y-76581000D01*
X103505000Y-79121000D02*
X103505000Y-76581000D01*
X103505000Y-79121000D02*
X106045000Y-79121000D01*
X106045000Y-79121000D02*
X106045000Y-76581000D01*
X104521000Y-76581000D02*
X104521000Y-70485000D01*
X104521000Y-70485000D02*
X105029000Y-70485000D01*
X105029000Y-70485000D02*
X105029000Y-76581000D01*
X106045000Y-76581000D02*
X103505000Y-76581000D01*
X103505000Y-76581000D02*
X100965000Y-76581000D01*
X102489000Y-70485000D02*
X102489000Y-76581000D01*
X101981000Y-70485000D02*
X102489000Y-70485000D01*
X101981000Y-76581000D02*
X101981000Y-70485000D01*
X103505000Y-79121000D02*
X103505000Y-76581000D01*
X100965000Y-79121000D02*
X103505000Y-79121000D01*
X117830000Y-81945000D02*
X119380000Y-81945000D01*
X117830000Y-80645000D02*
X117830000Y-81945000D01*
X119253000Y-76454000D02*
X119253000Y-70612000D01*
X119253000Y-70612000D02*
X119507000Y-70612000D01*
X119507000Y-70612000D02*
X119507000Y-76454000D01*
X119507000Y-76454000D02*
X119380000Y-76454000D01*
X119380000Y-76454000D02*
X119380000Y-70612000D01*
X119126000Y-79121000D02*
X119126000Y-79502000D01*
X119634000Y-79121000D02*
X119634000Y-79502000D01*
X121666000Y-79121000D02*
X121666000Y-79502000D01*
X122174000Y-79121000D02*
X122174000Y-79502000D01*
X118110000Y-79121000D02*
X118110000Y-76581000D01*
X120650000Y-79121000D02*
X120650000Y-76581000D01*
X120650000Y-79121000D02*
X123190000Y-79121000D01*
X123190000Y-79121000D02*
X123190000Y-76581000D01*
X121666000Y-76581000D02*
X121666000Y-70485000D01*
X121666000Y-70485000D02*
X122174000Y-70485000D01*
X122174000Y-70485000D02*
X122174000Y-76581000D01*
X123190000Y-76581000D02*
X120650000Y-76581000D01*
X120650000Y-76581000D02*
X118110000Y-76581000D01*
X119634000Y-70485000D02*
X119634000Y-76581000D01*
X119126000Y-70485000D02*
X119634000Y-70485000D01*
X119126000Y-76581000D02*
X119126000Y-70485000D01*
X120650000Y-79121000D02*
X120650000Y-76581000D01*
X118110000Y-79121000D02*
X120650000Y-79121000D01*
X106325000Y-113635000D02*
X104775000Y-113635000D01*
X106325000Y-114935000D02*
X106325000Y-113635000D01*
X104902000Y-119126000D02*
X104902000Y-124968000D01*
X104902000Y-124968000D02*
X104648000Y-124968000D01*
X104648000Y-124968000D02*
X104648000Y-119126000D01*
X104648000Y-119126000D02*
X104775000Y-119126000D01*
X104775000Y-119126000D02*
X104775000Y-124968000D01*
X105029000Y-116459000D02*
X105029000Y-116078000D01*
X104521000Y-116459000D02*
X104521000Y-116078000D01*
X102489000Y-116459000D02*
X102489000Y-116078000D01*
X101981000Y-116459000D02*
X101981000Y-116078000D01*
X106045000Y-116459000D02*
X106045000Y-118999000D01*
X103505000Y-116459000D02*
X103505000Y-118999000D01*
X103505000Y-116459000D02*
X100965000Y-116459000D01*
X100965000Y-116459000D02*
X100965000Y-118999000D01*
X102489000Y-118999000D02*
X102489000Y-125095000D01*
X102489000Y-125095000D02*
X101981000Y-125095000D01*
X101981000Y-125095000D02*
X101981000Y-118999000D01*
X100965000Y-118999000D02*
X103505000Y-118999000D01*
X103505000Y-118999000D02*
X106045000Y-118999000D01*
X104521000Y-125095000D02*
X104521000Y-118999000D01*
X105029000Y-125095000D02*
X104521000Y-125095000D01*
X105029000Y-118999000D02*
X105029000Y-125095000D01*
X103505000Y-116459000D02*
X103505000Y-118999000D01*
X106045000Y-116459000D02*
X103505000Y-116459000D01*
X117755000Y-113635000D02*
X116205000Y-113635000D01*
X117755000Y-114935000D02*
X117755000Y-113635000D01*
X116332000Y-119126000D02*
X116332000Y-124968000D01*
X116332000Y-124968000D02*
X116078000Y-124968000D01*
X116078000Y-124968000D02*
X116078000Y-119126000D01*
X116078000Y-119126000D02*
X116205000Y-119126000D01*
X116205000Y-119126000D02*
X116205000Y-124968000D01*
X116459000Y-116459000D02*
X116459000Y-116078000D01*
X115951000Y-116459000D02*
X115951000Y-116078000D01*
X113919000Y-116459000D02*
X113919000Y-116078000D01*
X113411000Y-116459000D02*
X113411000Y-116078000D01*
X117475000Y-116459000D02*
X117475000Y-118999000D01*
X114935000Y-116459000D02*
X114935000Y-118999000D01*
X114935000Y-116459000D02*
X112395000Y-116459000D01*
X112395000Y-116459000D02*
X112395000Y-118999000D01*
X113919000Y-118999000D02*
X113919000Y-125095000D01*
X113919000Y-125095000D02*
X113411000Y-125095000D01*
X113411000Y-125095000D02*
X113411000Y-118999000D01*
X112395000Y-118999000D02*
X114935000Y-118999000D01*
X114935000Y-118999000D02*
X117475000Y-118999000D01*
X115951000Y-125095000D02*
X115951000Y-118999000D01*
X116459000Y-125095000D02*
X115951000Y-125095000D01*
X116459000Y-118999000D02*
X116459000Y-125095000D01*
X114935000Y-116459000D02*
X114935000Y-118999000D01*
X117475000Y-116459000D02*
X114935000Y-116459000D01*
X112040000Y-113635000D02*
X110490000Y-113635000D01*
X112040000Y-114935000D02*
X112040000Y-113635000D01*
X110617000Y-119126000D02*
X110617000Y-124968000D01*
X110617000Y-124968000D02*
X110363000Y-124968000D01*
X110363000Y-124968000D02*
X110363000Y-119126000D01*
X110363000Y-119126000D02*
X110490000Y-119126000D01*
X110490000Y-119126000D02*
X110490000Y-124968000D01*
X110744000Y-116459000D02*
X110744000Y-116078000D01*
X110236000Y-116459000D02*
X110236000Y-116078000D01*
X108204000Y-116459000D02*
X108204000Y-116078000D01*
X107696000Y-116459000D02*
X107696000Y-116078000D01*
X111760000Y-116459000D02*
X111760000Y-118999000D01*
X109220000Y-116459000D02*
X109220000Y-118999000D01*
X109220000Y-116459000D02*
X106680000Y-116459000D01*
X106680000Y-116459000D02*
X106680000Y-118999000D01*
X108204000Y-118999000D02*
X108204000Y-125095000D01*
X108204000Y-125095000D02*
X107696000Y-125095000D01*
X107696000Y-125095000D02*
X107696000Y-118999000D01*
X106680000Y-118999000D02*
X109220000Y-118999000D01*
X109220000Y-118999000D02*
X111760000Y-118999000D01*
X110236000Y-125095000D02*
X110236000Y-118999000D01*
X110744000Y-125095000D02*
X110236000Y-125095000D01*
X110744000Y-118999000D02*
X110744000Y-125095000D01*
X109220000Y-116459000D02*
X109220000Y-118999000D01*
X111760000Y-116459000D02*
X109220000Y-116459000D01*
X73944000Y-113310000D02*
X73944000Y-111760000D01*
X72644000Y-113310000D02*
X73944000Y-113310000D01*
X68453000Y-111887000D02*
X62611000Y-111887000D01*
X62611000Y-111887000D02*
X62611000Y-111633000D01*
X62611000Y-111633000D02*
X68453000Y-111633000D01*
X68453000Y-111633000D02*
X68453000Y-111760000D01*
X68453000Y-111760000D02*
X62611000Y-111760000D01*
X71120000Y-112014000D02*
X71501000Y-112014000D01*
X71120000Y-111506000D02*
X71501000Y-111506000D01*
X71120000Y-109474000D02*
X71501000Y-109474000D01*
X71120000Y-108966000D02*
X71501000Y-108966000D01*
X71120000Y-106934000D02*
X71501000Y-106934000D01*
X71120000Y-106426000D02*
X71501000Y-106426000D01*
X71120000Y-104394000D02*
X71501000Y-104394000D01*
X71120000Y-103886000D02*
X71501000Y-103886000D01*
X71120000Y-101346000D02*
X71501000Y-101346000D01*
X71120000Y-101854000D02*
X71501000Y-101854000D01*
X68580000Y-110490000D02*
X68580000Y-113030000D01*
X62484000Y-111506000D02*
X68580000Y-111506000D01*
X62484000Y-112014000D02*
X62484000Y-111506000D01*
X68580000Y-112014000D02*
X62484000Y-112014000D01*
X71120000Y-110490000D02*
X68580000Y-110490000D01*
X71120000Y-113030000D02*
X71120000Y-110490000D01*
X71120000Y-113030000D02*
X68580000Y-113030000D01*
X71120000Y-107950000D02*
X68580000Y-107950000D01*
X71120000Y-107950000D02*
X71120000Y-105410000D01*
X71120000Y-105410000D02*
X68580000Y-105410000D01*
X68580000Y-106934000D02*
X62484000Y-106934000D01*
X62484000Y-106934000D02*
X62484000Y-106426000D01*
X62484000Y-106426000D02*
X68580000Y-106426000D01*
X68580000Y-105410000D02*
X68580000Y-107950000D01*
X68580000Y-107950000D02*
X68580000Y-110490000D01*
X62484000Y-108966000D02*
X68580000Y-108966000D01*
X62484000Y-109474000D02*
X62484000Y-108966000D01*
X68580000Y-109474000D02*
X62484000Y-109474000D01*
X71120000Y-107950000D02*
X68580000Y-107950000D01*
X71120000Y-110490000D02*
X71120000Y-107950000D01*
X71120000Y-110490000D02*
X68580000Y-110490000D01*
X71120000Y-102870000D02*
X68580000Y-102870000D01*
X71120000Y-102870000D02*
X71120000Y-100330000D01*
X71120000Y-100330000D02*
X68580000Y-100330000D01*
X68580000Y-101854000D02*
X62484000Y-101854000D01*
X62484000Y-101854000D02*
X62484000Y-101346000D01*
X62484000Y-101346000D02*
X68580000Y-101346000D01*
X68580000Y-100330000D02*
X68580000Y-102870000D01*
X68580000Y-102870000D02*
X68580000Y-105410000D01*
X62484000Y-103886000D02*
X68580000Y-103886000D01*
X62484000Y-104394000D02*
X62484000Y-103886000D01*
X68580000Y-104394000D02*
X62484000Y-104394000D01*
X71120000Y-102870000D02*
X68580000Y-102870000D01*
X71120000Y-105410000D02*
X71120000Y-102870000D01*
X71120000Y-105410000D02*
X68580000Y-105410000D01*
X73944000Y-96038000D02*
X73944000Y-94488000D01*
X72644000Y-96038000D02*
X73944000Y-96038000D01*
X68453000Y-94615000D02*
X62611000Y-94615000D01*
X62611000Y-94615000D02*
X62611000Y-94361000D01*
X62611000Y-94361000D02*
X68453000Y-94361000D01*
X68453000Y-94361000D02*
X68453000Y-94488000D01*
X68453000Y-94488000D02*
X62611000Y-94488000D01*
X71120000Y-94742000D02*
X71501000Y-94742000D01*
X71120000Y-94234000D02*
X71501000Y-94234000D01*
X71120000Y-92202000D02*
X71501000Y-92202000D01*
X71120000Y-91694000D02*
X71501000Y-91694000D01*
X71120000Y-89662000D02*
X71501000Y-89662000D01*
X71120000Y-89154000D02*
X71501000Y-89154000D01*
X71120000Y-87122000D02*
X71501000Y-87122000D01*
X71120000Y-86614000D02*
X71501000Y-86614000D01*
X71120000Y-84074000D02*
X71501000Y-84074000D01*
X71120000Y-84582000D02*
X71501000Y-84582000D01*
X68580000Y-93218000D02*
X68580000Y-95758000D01*
X62484000Y-94234000D02*
X68580000Y-94234000D01*
X62484000Y-94742000D02*
X62484000Y-94234000D01*
X68580000Y-94742000D02*
X62484000Y-94742000D01*
X71120000Y-93218000D02*
X68580000Y-93218000D01*
X71120000Y-95758000D02*
X71120000Y-93218000D01*
X71120000Y-95758000D02*
X68580000Y-95758000D01*
X71120000Y-90678000D02*
X68580000Y-90678000D01*
X71120000Y-90678000D02*
X71120000Y-88138000D01*
X71120000Y-88138000D02*
X68580000Y-88138000D01*
X68580000Y-89662000D02*
X62484000Y-89662000D01*
X62484000Y-89662000D02*
X62484000Y-89154000D01*
X62484000Y-89154000D02*
X68580000Y-89154000D01*
X68580000Y-88138000D02*
X68580000Y-90678000D01*
X68580000Y-90678000D02*
X68580000Y-93218000D01*
X62484000Y-91694000D02*
X68580000Y-91694000D01*
X62484000Y-92202000D02*
X62484000Y-91694000D01*
X68580000Y-92202000D02*
X62484000Y-92202000D01*
X71120000Y-90678000D02*
X68580000Y-90678000D01*
X71120000Y-93218000D02*
X71120000Y-90678000D01*
X71120000Y-93218000D02*
X68580000Y-93218000D01*
X71120000Y-85598000D02*
X68580000Y-85598000D01*
X71120000Y-85598000D02*
X71120000Y-83058000D01*
X71120000Y-83058000D02*
X68580000Y-83058000D01*
X68580000Y-84582000D02*
X62484000Y-84582000D01*
X62484000Y-84582000D02*
X62484000Y-84074000D01*
X62484000Y-84074000D02*
X68580000Y-84074000D01*
X68580000Y-83058000D02*
X68580000Y-85598000D01*
X68580000Y-85598000D02*
X68580000Y-88138000D01*
X62484000Y-86614000D02*
X68580000Y-86614000D01*
X62484000Y-87122000D02*
X62484000Y-86614000D01*
X68580000Y-87122000D02*
X62484000Y-87122000D01*
X71120000Y-85598000D02*
X68580000Y-85598000D01*
X71120000Y-88138000D02*
X71120000Y-85598000D01*
X71120000Y-88138000D02*
X68580000Y-88138000D01*
X112115000Y-81945000D02*
X113665000Y-81945000D01*
X112115000Y-80645000D02*
X112115000Y-81945000D01*
X113538000Y-76454000D02*
X113538000Y-70612000D01*
X113538000Y-70612000D02*
X113792000Y-70612000D01*
X113792000Y-70612000D02*
X113792000Y-76454000D01*
X113792000Y-76454000D02*
X113665000Y-76454000D01*
X113665000Y-76454000D02*
X113665000Y-70612000D01*
X113411000Y-79121000D02*
X113411000Y-79502000D01*
X113919000Y-79121000D02*
X113919000Y-79502000D01*
X115951000Y-79121000D02*
X115951000Y-79502000D01*
X116459000Y-79121000D02*
X116459000Y-79502000D01*
X112395000Y-79121000D02*
X112395000Y-76581000D01*
X114935000Y-79121000D02*
X114935000Y-76581000D01*
X114935000Y-79121000D02*
X117475000Y-79121000D01*
X117475000Y-79121000D02*
X117475000Y-76581000D01*
X115951000Y-76581000D02*
X115951000Y-70485000D01*
X115951000Y-70485000D02*
X116459000Y-70485000D01*
X116459000Y-70485000D02*
X116459000Y-76581000D01*
X117475000Y-76581000D02*
X114935000Y-76581000D01*
X114935000Y-76581000D02*
X112395000Y-76581000D01*
X113919000Y-70485000D02*
X113919000Y-76581000D01*
X113411000Y-70485000D02*
X113919000Y-70485000D01*
X113411000Y-76581000D02*
X113411000Y-70485000D01*
X114935000Y-79121000D02*
X114935000Y-76581000D01*
X112395000Y-79121000D02*
X114935000Y-79121000D01*
X106400000Y-81945000D02*
X107950000Y-81945000D01*
X106400000Y-80645000D02*
X106400000Y-81945000D01*
X107823000Y-76454000D02*
X107823000Y-70612000D01*
X107823000Y-70612000D02*
X108077000Y-70612000D01*
X108077000Y-70612000D02*
X108077000Y-76454000D01*
X108077000Y-76454000D02*
X107950000Y-76454000D01*
X107950000Y-76454000D02*
X107950000Y-70612000D01*
X107696000Y-79121000D02*
X107696000Y-79502000D01*
X108204000Y-79121000D02*
X108204000Y-79502000D01*
X110236000Y-79121000D02*
X110236000Y-79502000D01*
X110744000Y-79121000D02*
X110744000Y-79502000D01*
X106680000Y-79121000D02*
X106680000Y-76581000D01*
X109220000Y-79121000D02*
X109220000Y-76581000D01*
X109220000Y-79121000D02*
X111760000Y-79121000D01*
X111760000Y-79121000D02*
X111760000Y-76581000D01*
X110236000Y-76581000D02*
X110236000Y-70485000D01*
X110236000Y-70485000D02*
X110744000Y-70485000D01*
X110744000Y-70485000D02*
X110744000Y-76581000D01*
X111760000Y-76581000D02*
X109220000Y-76581000D01*
X109220000Y-76581000D02*
X106680000Y-76581000D01*
X108204000Y-70485000D02*
X108204000Y-76581000D01*
X107696000Y-70485000D02*
X108204000Y-70485000D01*
X107696000Y-76581000D02*
X107696000Y-70485000D01*
X109220000Y-79121000D02*
X109220000Y-76581000D01*
X106680000Y-79121000D02*
X109220000Y-79121000D01*
X123470000Y-113635000D02*
X121920000Y-113635000D01*
X123470000Y-114935000D02*
X123470000Y-113635000D01*
X122047000Y-119126000D02*
X122047000Y-124968000D01*
X122047000Y-124968000D02*
X121793000Y-124968000D01*
X121793000Y-124968000D02*
X121793000Y-119126000D01*
X121793000Y-119126000D02*
X121920000Y-119126000D01*
X121920000Y-119126000D02*
X121920000Y-124968000D01*
X122174000Y-116459000D02*
X122174000Y-116078000D01*
X121666000Y-116459000D02*
X121666000Y-116078000D01*
X119634000Y-116459000D02*
X119634000Y-116078000D01*
X119126000Y-116459000D02*
X119126000Y-116078000D01*
X123190000Y-116459000D02*
X123190000Y-118999000D01*
X120650000Y-116459000D02*
X120650000Y-118999000D01*
X120650000Y-116459000D02*
X118110000Y-116459000D01*
X118110000Y-116459000D02*
X118110000Y-118999000D01*
X119634000Y-118999000D02*
X119634000Y-125095000D01*
X119634000Y-125095000D02*
X119126000Y-125095000D01*
X119126000Y-125095000D02*
X119126000Y-118999000D01*
X118110000Y-118999000D02*
X120650000Y-118999000D01*
X120650000Y-118999000D02*
X123190000Y-118999000D01*
X121666000Y-125095000D02*
X121666000Y-118999000D01*
X122174000Y-125095000D02*
X121666000Y-125095000D01*
X122174000Y-118999000D02*
X122174000Y-125095000D01*
X120650000Y-116459000D02*
X120650000Y-118999000D01*
X123190000Y-116459000D02*
X120650000Y-116459000D01*
X84439286Y-80732381D02*
X85010715Y-80732381D01*
X84725000Y-81732381D02*
X84725000Y-80732381D01*
X85344048Y-81732381D02*
X85344048Y-80732381D01*
X85915477Y-81732381D01*
X85915477Y-80732381D01*
X86915477Y-81732381D02*
X86344048Y-81732381D01*
X86629762Y-81732381D02*
X86629762Y-80732381D01*
X86534524Y-80875238D01*
X86439286Y-80970476D01*
X86344048Y-81018095D01*
X111450524Y-100782381D02*
X111117190Y-100306190D01*
X110879095Y-100782381D02*
X110879095Y-99782381D01*
X111260048Y-99782381D01*
X111355286Y-99830000D01*
X111402905Y-99877619D01*
X111450524Y-99972857D01*
X111450524Y-100115714D01*
X111402905Y-100210952D01*
X111355286Y-100258571D01*
X111260048Y-100306190D01*
X110879095Y-100306190D01*
X111879095Y-100782381D02*
X111879095Y-99782381D01*
X112450524Y-100782381D01*
X112450524Y-99782381D01*
X113450524Y-100782381D02*
X112879095Y-100782381D01*
X113164809Y-100782381D02*
X113164809Y-99782381D01*
X113069571Y-99925238D01*
X112974333Y-100020476D01*
X112879095Y-100068095D01*
X97242381Y-88391905D02*
X98051905Y-88391905D01*
X98147143Y-88344286D01*
X98194762Y-88296667D01*
X98242381Y-88201429D01*
X98242381Y-88010952D01*
X98194762Y-87915714D01*
X98147143Y-87868095D01*
X98051905Y-87820476D01*
X97242381Y-87820476D01*
X97337619Y-87391905D02*
X97290000Y-87344286D01*
X97242381Y-87249048D01*
X97242381Y-87010952D01*
X97290000Y-86915714D01*
X97337619Y-86868095D01*
X97432857Y-86820476D01*
X97528095Y-86820476D01*
X97670952Y-86868095D01*
X98242381Y-87439524D01*
X98242381Y-86820476D01*
X97242381Y-108711905D02*
X98051905Y-108711905D01*
X98147143Y-108664286D01*
X98194762Y-108616667D01*
X98242381Y-108521429D01*
X98242381Y-108330952D01*
X98194762Y-108235714D01*
X98147143Y-108188095D01*
X98051905Y-108140476D01*
X97242381Y-108140476D01*
X98242381Y-107140476D02*
X98242381Y-107711905D01*
X98242381Y-107426191D02*
X97242381Y-107426191D01*
X97385238Y-107521429D01*
X97480476Y-107616667D01*
X97528095Y-107711905D01*
X102893905Y-82748381D02*
X102893905Y-81748381D01*
X103274858Y-81748381D01*
X103370096Y-81796000D01*
X103417715Y-81843619D01*
X103465334Y-81938857D01*
X103465334Y-82081714D01*
X103417715Y-82176952D01*
X103370096Y-82224571D01*
X103274858Y-82272190D01*
X102893905Y-82272190D01*
X104370096Y-81748381D02*
X103893905Y-81748381D01*
X103846286Y-82224571D01*
X103893905Y-82176952D01*
X103989143Y-82129333D01*
X104227239Y-82129333D01*
X104322477Y-82176952D01*
X104370096Y-82224571D01*
X104417715Y-82319810D01*
X104417715Y-82557905D01*
X104370096Y-82653143D01*
X104322477Y-82700762D01*
X104227239Y-82748381D01*
X103989143Y-82748381D01*
X103893905Y-82700762D01*
X103846286Y-82653143D01*
X120165905Y-82748381D02*
X120165905Y-81748381D01*
X120546858Y-81748381D01*
X120642096Y-81796000D01*
X120689715Y-81843619D01*
X120737334Y-81938857D01*
X120737334Y-82081714D01*
X120689715Y-82176952D01*
X120642096Y-82224571D01*
X120546858Y-82272190D01*
X120165905Y-82272190D01*
X121594477Y-81748381D02*
X121404000Y-81748381D01*
X121308762Y-81796000D01*
X121261143Y-81843619D01*
X121165905Y-81986476D01*
X121118286Y-82176952D01*
X121118286Y-82557905D01*
X121165905Y-82653143D01*
X121213524Y-82700762D01*
X121308762Y-82748381D01*
X121499239Y-82748381D01*
X121594477Y-82700762D01*
X121642096Y-82653143D01*
X121689715Y-82557905D01*
X121689715Y-82319810D01*
X121642096Y-82224571D01*
X121594477Y-82176952D01*
X121499239Y-82129333D01*
X121308762Y-82129333D01*
X121213524Y-82176952D01*
X121165905Y-82224571D01*
X121118286Y-82319810D01*
X102893905Y-113736381D02*
X102893905Y-112736381D01*
X103274858Y-112736381D01*
X103370096Y-112784000D01*
X103417715Y-112831619D01*
X103465334Y-112926857D01*
X103465334Y-113069714D01*
X103417715Y-113164952D01*
X103370096Y-113212571D01*
X103274858Y-113260190D01*
X102893905Y-113260190D01*
X103798667Y-112736381D02*
X104465334Y-112736381D01*
X104036762Y-113736381D01*
X114069905Y-113736381D02*
X114069905Y-112736381D01*
X114450858Y-112736381D01*
X114546096Y-112784000D01*
X114593715Y-112831619D01*
X114641334Y-112926857D01*
X114641334Y-113069714D01*
X114593715Y-113164952D01*
X114546096Y-113212571D01*
X114450858Y-113260190D01*
X114069905Y-113260190D01*
X115212762Y-113164952D02*
X115117524Y-113117333D01*
X115069905Y-113069714D01*
X115022286Y-112974476D01*
X115022286Y-112926857D01*
X115069905Y-112831619D01*
X115117524Y-112784000D01*
X115212762Y-112736381D01*
X115403239Y-112736381D01*
X115498477Y-112784000D01*
X115546096Y-112831619D01*
X115593715Y-112926857D01*
X115593715Y-112974476D01*
X115546096Y-113069714D01*
X115498477Y-113117333D01*
X115403239Y-113164952D01*
X115212762Y-113164952D01*
X115117524Y-113212571D01*
X115069905Y-113260190D01*
X115022286Y-113355429D01*
X115022286Y-113545905D01*
X115069905Y-113641143D01*
X115117524Y-113688762D01*
X115212762Y-113736381D01*
X115403239Y-113736381D01*
X115498477Y-113688762D01*
X115546096Y-113641143D01*
X115593715Y-113545905D01*
X115593715Y-113355429D01*
X115546096Y-113260190D01*
X115498477Y-113212571D01*
X115403239Y-113164952D01*
X108005714Y-113736381D02*
X108005714Y-112736381D01*
X108386667Y-112736381D01*
X108481905Y-112784000D01*
X108529524Y-112831619D01*
X108577143Y-112926857D01*
X108577143Y-113069714D01*
X108529524Y-113164952D01*
X108481905Y-113212571D01*
X108386667Y-113260190D01*
X108005714Y-113260190D01*
X109529524Y-113736381D02*
X108958095Y-113736381D01*
X109243809Y-113736381D02*
X109243809Y-112736381D01*
X109148571Y-112879238D01*
X109053333Y-112974476D01*
X108958095Y-113022095D01*
X110148571Y-112736381D02*
X110243810Y-112736381D01*
X110339048Y-112784000D01*
X110386667Y-112831619D01*
X110434286Y-112926857D01*
X110481905Y-113117333D01*
X110481905Y-113355429D01*
X110434286Y-113545905D01*
X110386667Y-113641143D01*
X110339048Y-113688762D01*
X110243810Y-113736381D01*
X110148571Y-113736381D01*
X110053333Y-113688762D01*
X110005714Y-113641143D01*
X109958095Y-113545905D01*
X109910476Y-113355429D01*
X109910476Y-113117333D01*
X109958095Y-112926857D01*
X110005714Y-112831619D01*
X110053333Y-112784000D01*
X110148571Y-112736381D01*
X75001381Y-107418095D02*
X74001381Y-107418095D01*
X74001381Y-107037142D01*
X74049000Y-106941904D01*
X74096619Y-106894285D01*
X74191857Y-106846666D01*
X74334714Y-106846666D01*
X74429952Y-106894285D01*
X74477571Y-106941904D01*
X74525190Y-107037142D01*
X74525190Y-107418095D01*
X75001381Y-105894285D02*
X75001381Y-106465714D01*
X75001381Y-106180000D02*
X74001381Y-106180000D01*
X74144238Y-106275238D01*
X74239476Y-106370476D01*
X74287095Y-106465714D01*
X75001381Y-90146095D02*
X74001381Y-90146095D01*
X74001381Y-89765142D01*
X74049000Y-89669904D01*
X74096619Y-89622285D01*
X74191857Y-89574666D01*
X74334714Y-89574666D01*
X74429952Y-89622285D01*
X74477571Y-89669904D01*
X74525190Y-89765142D01*
X74525190Y-90146095D01*
X74096619Y-89193714D02*
X74049000Y-89146095D01*
X74001381Y-89050857D01*
X74001381Y-88812761D01*
X74049000Y-88717523D01*
X74096619Y-88669904D01*
X74191857Y-88622285D01*
X74287095Y-88622285D01*
X74429952Y-88669904D01*
X75001381Y-89241333D01*
X75001381Y-88622285D01*
X114577905Y-82748381D02*
X114577905Y-81748381D01*
X114958858Y-81748381D01*
X115054096Y-81796000D01*
X115101715Y-81843619D01*
X115149334Y-81938857D01*
X115149334Y-82081714D01*
X115101715Y-82176952D01*
X115054096Y-82224571D01*
X114958858Y-82272190D01*
X114577905Y-82272190D01*
X115482667Y-81748381D02*
X116101715Y-81748381D01*
X115768381Y-82129333D01*
X115911239Y-82129333D01*
X116006477Y-82176952D01*
X116054096Y-82224571D01*
X116101715Y-82319810D01*
X116101715Y-82557905D01*
X116054096Y-82653143D01*
X116006477Y-82700762D01*
X115911239Y-82748381D01*
X115625524Y-82748381D01*
X115530286Y-82700762D01*
X115482667Y-82653143D01*
X108989905Y-82748381D02*
X108989905Y-81748381D01*
X109370858Y-81748381D01*
X109466096Y-81796000D01*
X109513715Y-81843619D01*
X109561334Y-81938857D01*
X109561334Y-82081714D01*
X109513715Y-82176952D01*
X109466096Y-82224571D01*
X109370858Y-82272190D01*
X108989905Y-82272190D01*
X110418477Y-82081714D02*
X110418477Y-82748381D01*
X110180381Y-81700762D02*
X109942286Y-82415048D01*
X110561334Y-82415048D01*
X119657905Y-113736381D02*
X119657905Y-112736381D01*
X120038858Y-112736381D01*
X120134096Y-112784000D01*
X120181715Y-112831619D01*
X120229334Y-112926857D01*
X120229334Y-113069714D01*
X120181715Y-113164952D01*
X120134096Y-113212571D01*
X120038858Y-113260190D01*
X119657905Y-113260190D01*
X120705524Y-113736381D02*
X120896000Y-113736381D01*
X120991239Y-113688762D01*
X121038858Y-113641143D01*
X121134096Y-113498286D01*
X121181715Y-113307810D01*
X121181715Y-112926857D01*
X121134096Y-112831619D01*
X121086477Y-112784000D01*
X120991239Y-112736381D01*
X120800762Y-112736381D01*
X120705524Y-112784000D01*
X120657905Y-112831619D01*
X120610286Y-112926857D01*
X120610286Y-113164952D01*
X120657905Y-113260190D01*
X120705524Y-113307810D01*
X120800762Y-113355429D01*
X120991239Y-113355429D01*
X121086477Y-113307810D01*
X121134096Y-113260190D01*
X121181715Y-113164952D01*
M02*
