G04 #@! TF.FileFunction,Soldermask,Top*
%FSLAX46Y46*%
G04 Gerber Fmt 4.6, Leading zero omitted, Abs format (unit mm)*
G04 Created by KiCad (PCBNEW 4.0.1-stable) date 27/12/2015 00:21:35*
%MOMM*%
G01*
G04 APERTURE LIST*
%ADD10C,0.100000*%
%ADD11O,2.000000X2.000000*%
%ADD12R,1.797000X1.797000*%
%ADD13C,1.797000*%
%ADD14R,2.432000X2.432000*%
%ADD15O,2.432000X2.432000*%
%ADD16R,2.432000X2.127200*%
%ADD17O,2.432000X2.127200*%
G04 APERTURE END LIST*
D10*
D11*
X90805000Y-114300000D03*
X85725000Y-114300000D03*
X88265000Y-114300000D03*
X83185000Y-114300000D03*
X78105000Y-114300000D03*
X78105000Y-81280000D03*
X78105000Y-83820000D03*
X78105000Y-86360000D03*
X78105000Y-88900000D03*
X78105000Y-91440000D03*
X78105000Y-93980000D03*
X78105000Y-96520000D03*
X78105000Y-99060000D03*
X78105000Y-101600000D03*
X78105000Y-104140000D03*
X78105000Y-106680000D03*
X78105000Y-109220000D03*
X78105000Y-111760000D03*
X80645000Y-114300000D03*
X93345000Y-114300000D03*
X93345000Y-111760000D03*
X93345000Y-109220000D03*
X93345000Y-106680000D03*
X93345000Y-104140000D03*
X93345000Y-101600000D03*
X93345000Y-99060000D03*
X93345000Y-96520000D03*
X93345000Y-93980000D03*
X93345000Y-91440000D03*
X93345000Y-88900000D03*
X93345000Y-86360000D03*
X93345000Y-83820000D03*
X93345000Y-81280000D03*
D12*
X122555000Y-97790000D03*
D13*
X120015000Y-97790000D03*
X117475000Y-97790000D03*
X114935000Y-97790000D03*
X112395000Y-97790000D03*
X109855000Y-97790000D03*
X107315000Y-97790000D03*
X104775000Y-97790000D03*
X102235000Y-97790000D03*
X99695000Y-97790000D03*
D11*
X102235000Y-91440000D03*
X104775000Y-91440000D03*
X107315000Y-91440000D03*
X109855000Y-91440000D03*
X112395000Y-91440000D03*
X114935000Y-91440000D03*
X117475000Y-91440000D03*
X120015000Y-91440000D03*
X120015000Y-83820000D03*
X117475000Y-83820000D03*
X114935000Y-83820000D03*
X112395000Y-83820000D03*
X109855000Y-83820000D03*
X107315000Y-83820000D03*
X104775000Y-83820000D03*
X102235000Y-83820000D03*
X102235000Y-111760000D03*
X104775000Y-111760000D03*
X107315000Y-111760000D03*
X109855000Y-111760000D03*
X112395000Y-111760000D03*
X114935000Y-111760000D03*
X117475000Y-111760000D03*
X120015000Y-111760000D03*
X120015000Y-104140000D03*
X117475000Y-104140000D03*
X114935000Y-104140000D03*
X112395000Y-104140000D03*
X109855000Y-104140000D03*
X107315000Y-104140000D03*
X104775000Y-104140000D03*
X102235000Y-104140000D03*
D14*
X102235000Y-80645000D03*
D15*
X104775000Y-80645000D03*
D14*
X119380000Y-80645000D03*
D15*
X121920000Y-80645000D03*
D14*
X104775000Y-114935000D03*
D15*
X102235000Y-114935000D03*
D14*
X116205000Y-114935000D03*
D15*
X113665000Y-114935000D03*
D14*
X110490000Y-114935000D03*
D15*
X107950000Y-114935000D03*
D16*
X72644000Y-111760000D03*
D17*
X72644000Y-109220000D03*
X72644000Y-106680000D03*
X72644000Y-104140000D03*
X72644000Y-101600000D03*
D16*
X72644000Y-94488000D03*
D17*
X72644000Y-91948000D03*
X72644000Y-89408000D03*
X72644000Y-86868000D03*
X72644000Y-84328000D03*
D14*
X113665000Y-80645000D03*
D15*
X116205000Y-80645000D03*
D14*
X107950000Y-80645000D03*
D15*
X110490000Y-80645000D03*
D14*
X121920000Y-114935000D03*
D15*
X119380000Y-114935000D03*
M02*
