G04 #@! TF.FileFunction,Copper,L2,Bot,Signal*
%FSLAX46Y46*%
G04 Gerber Fmt 4.6, Leading zero omitted, Abs format (unit mm)*
G04 Created by KiCad (PCBNEW 4.0.1-stable) date 27/12/2015 00:21:34*
%MOMM*%
G01*
G04 APERTURE LIST*
%ADD10C,0.100000*%
%ADD11O,1.600000X1.600000*%
%ADD12R,1.397000X1.397000*%
%ADD13C,1.397000*%
%ADD14R,2.032000X2.032000*%
%ADD15O,2.032000X2.032000*%
%ADD16R,2.032000X1.727200*%
%ADD17O,2.032000X1.727200*%
%ADD18C,0.152400*%
%ADD19C,0.254000*%
G04 APERTURE END LIST*
D10*
D11*
X90805000Y-114300000D03*
X85725000Y-114300000D03*
X88265000Y-114300000D03*
X83185000Y-114300000D03*
X78105000Y-114300000D03*
X78105000Y-81280000D03*
X78105000Y-83820000D03*
X78105000Y-86360000D03*
X78105000Y-88900000D03*
X78105000Y-91440000D03*
X78105000Y-93980000D03*
X78105000Y-96520000D03*
X78105000Y-99060000D03*
X78105000Y-101600000D03*
X78105000Y-104140000D03*
X78105000Y-106680000D03*
X78105000Y-109220000D03*
X78105000Y-111760000D03*
X80645000Y-114300000D03*
X93345000Y-114300000D03*
X93345000Y-111760000D03*
X93345000Y-109220000D03*
X93345000Y-106680000D03*
X93345000Y-104140000D03*
X93345000Y-101600000D03*
X93345000Y-99060000D03*
X93345000Y-96520000D03*
X93345000Y-93980000D03*
X93345000Y-91440000D03*
X93345000Y-88900000D03*
X93345000Y-86360000D03*
X93345000Y-83820000D03*
X93345000Y-81280000D03*
D12*
X122555000Y-97790000D03*
D13*
X120015000Y-97790000D03*
X117475000Y-97790000D03*
X114935000Y-97790000D03*
X112395000Y-97790000D03*
X109855000Y-97790000D03*
X107315000Y-97790000D03*
X104775000Y-97790000D03*
X102235000Y-97790000D03*
X99695000Y-97790000D03*
D11*
X102235000Y-91440000D03*
X104775000Y-91440000D03*
X107315000Y-91440000D03*
X109855000Y-91440000D03*
X112395000Y-91440000D03*
X114935000Y-91440000D03*
X117475000Y-91440000D03*
X120015000Y-91440000D03*
X120015000Y-83820000D03*
X117475000Y-83820000D03*
X114935000Y-83820000D03*
X112395000Y-83820000D03*
X109855000Y-83820000D03*
X107315000Y-83820000D03*
X104775000Y-83820000D03*
X102235000Y-83820000D03*
X102235000Y-111760000D03*
X104775000Y-111760000D03*
X107315000Y-111760000D03*
X109855000Y-111760000D03*
X112395000Y-111760000D03*
X114935000Y-111760000D03*
X117475000Y-111760000D03*
X120015000Y-111760000D03*
X120015000Y-104140000D03*
X117475000Y-104140000D03*
X114935000Y-104140000D03*
X112395000Y-104140000D03*
X109855000Y-104140000D03*
X107315000Y-104140000D03*
X104775000Y-104140000D03*
X102235000Y-104140000D03*
D14*
X102235000Y-80645000D03*
D15*
X104775000Y-80645000D03*
D14*
X119380000Y-80645000D03*
D15*
X121920000Y-80645000D03*
D14*
X104775000Y-114935000D03*
D15*
X102235000Y-114935000D03*
D14*
X116205000Y-114935000D03*
D15*
X113665000Y-114935000D03*
D14*
X110490000Y-114935000D03*
D15*
X107950000Y-114935000D03*
D16*
X72644000Y-111760000D03*
D17*
X72644000Y-109220000D03*
X72644000Y-106680000D03*
X72644000Y-104140000D03*
X72644000Y-101600000D03*
D16*
X72644000Y-94488000D03*
D17*
X72644000Y-91948000D03*
X72644000Y-89408000D03*
X72644000Y-86868000D03*
X72644000Y-84328000D03*
D14*
X113665000Y-80645000D03*
D15*
X116205000Y-80645000D03*
D14*
X107950000Y-80645000D03*
D15*
X110490000Y-80645000D03*
D14*
X121920000Y-114935000D03*
D15*
X119380000Y-114935000D03*
D18*
X104775000Y-114935000D02*
X104775000Y-116713000D01*
X73914000Y-113030000D02*
X72644000Y-111760000D01*
X86614000Y-113030000D02*
X73914000Y-113030000D01*
X86868000Y-113284000D02*
X86614000Y-113030000D01*
X86868000Y-115824000D02*
X86868000Y-113284000D01*
X87884000Y-116840000D02*
X86868000Y-115824000D01*
X104648000Y-116840000D02*
X87884000Y-116840000D01*
X104775000Y-116713000D02*
X104648000Y-116840000D01*
X116205000Y-114935000D02*
X116205000Y-116840000D01*
X110490000Y-114935000D02*
X110490000Y-116840000D01*
X121920000Y-114935000D02*
X121920000Y-116840000D01*
X104775000Y-116840000D02*
X104775000Y-114935000D01*
X121920000Y-116840000D02*
X116205000Y-116840000D01*
X116205000Y-116840000D02*
X110490000Y-116840000D01*
X110490000Y-116840000D02*
X104775000Y-116840000D01*
X102235000Y-83820000D02*
X98425000Y-83820000D01*
X99060000Y-104140000D02*
X102235000Y-104140000D01*
X96520000Y-101600000D02*
X99060000Y-104140000D01*
X96520000Y-85725000D02*
X96520000Y-101600000D01*
X98425000Y-83820000D02*
X96520000Y-85725000D01*
X107950000Y-80645000D02*
X107950000Y-78740000D01*
X113665000Y-80645000D02*
X113665000Y-78740000D01*
X102235000Y-80645000D02*
X102235000Y-78740000D01*
X119380000Y-78740000D02*
X119380000Y-80645000D01*
X102235000Y-78740000D02*
X107950000Y-78740000D01*
X107950000Y-78740000D02*
X113665000Y-78740000D01*
X113665000Y-78740000D02*
X119380000Y-78740000D01*
X102235000Y-80645000D02*
X102235000Y-83820000D01*
X72644000Y-109220000D02*
X74422000Y-109220000D01*
X89408000Y-111760000D02*
X93345000Y-111760000D01*
X88138000Y-110490000D02*
X89408000Y-111760000D01*
X75692000Y-110490000D02*
X88138000Y-110490000D01*
X74422000Y-109220000D02*
X75692000Y-110490000D01*
X72644000Y-106680000D02*
X74168000Y-106680000D01*
X88900000Y-109220000D02*
X93345000Y-109220000D01*
X87630000Y-107950000D02*
X88900000Y-109220000D01*
X75438000Y-107950000D02*
X87630000Y-107950000D01*
X74168000Y-106680000D02*
X75438000Y-107950000D01*
X72644000Y-104140000D02*
X78105000Y-104140000D01*
X72644000Y-101600000D02*
X70612000Y-103632000D01*
X83693000Y-116332000D02*
X85725000Y-114300000D01*
X71120000Y-116332000D02*
X83693000Y-116332000D01*
X70612000Y-115824000D02*
X71120000Y-116332000D01*
X70612000Y-103632000D02*
X70612000Y-115824000D01*
X72644000Y-84328000D02*
X70612000Y-84328000D01*
X70612000Y-84328000D02*
X70104000Y-84836000D01*
X70104000Y-84836000D02*
X70104000Y-99060000D01*
X70104000Y-99060000D02*
X72644000Y-101600000D01*
X78105000Y-81280000D02*
X75692000Y-81280000D01*
X75692000Y-81280000D02*
X72644000Y-84328000D01*
X122555000Y-97790000D02*
X122555000Y-111760000D01*
X122555000Y-111760000D02*
X120015000Y-111760000D01*
X120015000Y-91440000D02*
X121920000Y-91440000D01*
X122555000Y-92075000D02*
X122555000Y-97790000D01*
X121920000Y-91440000D02*
X122555000Y-92075000D01*
X72644000Y-91948000D02*
X75946000Y-91948000D01*
X85598000Y-106680000D02*
X93345000Y-106680000D01*
X84074000Y-105156000D02*
X85598000Y-106680000D01*
X84074000Y-95504000D02*
X84074000Y-105156000D01*
X81280000Y-92710000D02*
X84074000Y-95504000D01*
X76708000Y-92710000D02*
X81280000Y-92710000D01*
X75946000Y-91948000D02*
X76708000Y-92710000D01*
X72644000Y-89408000D02*
X75692000Y-89408000D01*
X87884000Y-104140000D02*
X93345000Y-104140000D01*
X86614000Y-102870000D02*
X87884000Y-104140000D01*
X86614000Y-96266000D02*
X86614000Y-102870000D01*
X80518000Y-90170000D02*
X86614000Y-96266000D01*
X76454000Y-90170000D02*
X80518000Y-90170000D01*
X75692000Y-89408000D02*
X76454000Y-90170000D01*
X72644000Y-86868000D02*
X76073000Y-86868000D01*
X76073000Y-86868000D02*
X78105000Y-88900000D01*
X112395000Y-83820000D02*
X112395000Y-88900000D01*
X112395000Y-95885000D02*
X112395000Y-97790000D01*
X113665000Y-94615000D02*
X112395000Y-95885000D01*
X113665000Y-90170000D02*
X113665000Y-94615000D01*
X112395000Y-88900000D02*
X113665000Y-90170000D01*
X112395000Y-83820000D02*
X113665000Y-82550000D01*
X114935000Y-82550000D02*
X116205000Y-81280000D01*
X113665000Y-82550000D02*
X114935000Y-82550000D01*
X116205000Y-81280000D02*
X116205000Y-80645000D01*
X102235000Y-114935000D02*
X102235000Y-114300000D01*
X102235000Y-114300000D02*
X103505000Y-113030000D01*
X103505000Y-113030000D02*
X103505000Y-107950000D01*
X103505000Y-107950000D02*
X106045000Y-105410000D01*
X106045000Y-105410000D02*
X106045000Y-103505000D01*
X106045000Y-103505000D02*
X102235000Y-99695000D01*
X102235000Y-99695000D02*
X100330000Y-99695000D01*
X100330000Y-99695000D02*
X99695000Y-99060000D01*
X99695000Y-99060000D02*
X99695000Y-97790000D01*
X107315000Y-91440000D02*
X107315000Y-92710000D01*
X102870000Y-94615000D02*
X99695000Y-97790000D01*
X105410000Y-94615000D02*
X102870000Y-94615000D01*
X107315000Y-92710000D02*
X105410000Y-94615000D01*
X109855000Y-83820000D02*
X109855000Y-82550000D01*
X110490000Y-81915000D02*
X110490000Y-80645000D01*
X109855000Y-82550000D02*
X110490000Y-81915000D01*
X109855000Y-83820000D02*
X109855000Y-88265000D01*
X111125000Y-93345000D02*
X107315000Y-97155000D01*
X111125000Y-89535000D02*
X111125000Y-93345000D01*
X109855000Y-88265000D02*
X111125000Y-89535000D01*
X107315000Y-97155000D02*
X107315000Y-97790000D01*
X109855000Y-81280000D02*
X110490000Y-80645000D01*
X113665000Y-114935000D02*
X113665000Y-108585000D01*
X109855000Y-100330000D02*
X109855000Y-97790000D01*
X111125000Y-101600000D02*
X109855000Y-100330000D01*
X111125000Y-106045000D02*
X111125000Y-101600000D01*
X113665000Y-108585000D02*
X111125000Y-106045000D01*
X112395000Y-91440000D02*
X112395000Y-93345000D01*
X109855000Y-95885000D02*
X109855000Y-97790000D01*
X112395000Y-93345000D02*
X109855000Y-95885000D01*
X107315000Y-83820000D02*
X107315000Y-89535000D01*
X102235000Y-96520000D02*
X102235000Y-97790000D01*
X103505000Y-95250000D02*
X102235000Y-96520000D01*
X105410000Y-95250000D02*
X103505000Y-95250000D01*
X108585000Y-92075000D02*
X105410000Y-95250000D01*
X108585000Y-90805000D02*
X108585000Y-92075000D01*
X107315000Y-89535000D02*
X108585000Y-90805000D01*
X107315000Y-83820000D02*
X107315000Y-83185000D01*
X107315000Y-83185000D02*
X104775000Y-80645000D01*
X119380000Y-114935000D02*
X119380000Y-113030000D01*
X114935000Y-99695000D02*
X114935000Y-97790000D01*
X116205000Y-100965000D02*
X114935000Y-99695000D01*
X116205000Y-106045000D02*
X116205000Y-100965000D01*
X118745000Y-108585000D02*
X116205000Y-106045000D01*
X118745000Y-112395000D02*
X118745000Y-108585000D01*
X119380000Y-113030000D02*
X118745000Y-112395000D01*
X114935000Y-91440000D02*
X114935000Y-97790000D01*
X114935000Y-91440000D02*
X114935000Y-92075000D01*
X114935000Y-83820000D02*
X114935000Y-88900000D01*
X117475000Y-96520000D02*
X117475000Y-97790000D01*
X116205000Y-95250000D02*
X117475000Y-96520000D01*
X116205000Y-90170000D02*
X116205000Y-95250000D01*
X114935000Y-88900000D02*
X116205000Y-90170000D01*
X114935000Y-83820000D02*
X115570000Y-83820000D01*
X115570000Y-83820000D02*
X116840000Y-82550000D01*
X120015000Y-82550000D02*
X121920000Y-80645000D01*
X116840000Y-82550000D02*
X120015000Y-82550000D01*
X116840000Y-97790000D02*
X117475000Y-97790000D01*
X107950000Y-114935000D02*
X107950000Y-113665000D01*
X104775000Y-99060000D02*
X104775000Y-97790000D01*
X108585000Y-102870000D02*
X104775000Y-99060000D01*
X108585000Y-113030000D02*
X108585000Y-102870000D01*
X107950000Y-113665000D02*
X108585000Y-113030000D01*
X109855000Y-91440000D02*
X109855000Y-92710000D01*
X105410000Y-95885000D02*
X104775000Y-96520000D01*
X106680000Y-95885000D02*
X105410000Y-95885000D01*
X109855000Y-92710000D02*
X106680000Y-95885000D01*
X104775000Y-96520000D02*
X104775000Y-97790000D01*
X104775000Y-96520000D02*
X104775000Y-97790000D01*
X109855000Y-91440000D02*
X109855000Y-92075000D01*
X104775000Y-83820000D02*
X104775000Y-89535000D01*
X101600000Y-100965000D02*
X104775000Y-104140000D01*
X99695000Y-100965000D02*
X101600000Y-100965000D01*
X97790000Y-99060000D02*
X99695000Y-100965000D01*
X97790000Y-95250000D02*
X97790000Y-99060000D01*
X100330000Y-92710000D02*
X97790000Y-95250000D01*
X105410000Y-92710000D02*
X100330000Y-92710000D01*
X106045000Y-92075000D02*
X105410000Y-92710000D01*
X106045000Y-90805000D02*
X106045000Y-92075000D01*
X104775000Y-89535000D02*
X106045000Y-90805000D01*
X117475000Y-104140000D02*
X117475000Y-100965000D01*
X120015000Y-85725000D02*
X120015000Y-83820000D01*
X118745000Y-86995000D02*
X120015000Y-85725000D01*
X118745000Y-99695000D02*
X118745000Y-86995000D01*
X117475000Y-100965000D02*
X118745000Y-99695000D01*
D19*
G36*
X124982000Y-118378000D02*
X70598000Y-118378000D01*
X70598000Y-101240974D01*
X71036642Y-101240974D01*
X71157783Y-101473000D01*
X72517000Y-101473000D01*
X72517000Y-100259076D01*
X72771000Y-100259076D01*
X72771000Y-101473000D01*
X74130217Y-101473000D01*
X74251358Y-101240974D01*
X74248709Y-101225209D01*
X73994732Y-100697964D01*
X73558320Y-100308046D01*
X73005913Y-100114816D01*
X72771000Y-100259076D01*
X72517000Y-100259076D01*
X72282087Y-100114816D01*
X71729680Y-100308046D01*
X71293268Y-100697964D01*
X71039291Y-101225209D01*
X71036642Y-101240974D01*
X70598000Y-101240974D01*
X70598000Y-86868000D01*
X70662934Y-86868000D01*
X70799235Y-87553233D01*
X71187389Y-88134145D01*
X71193158Y-88138000D01*
X71187389Y-88141855D01*
X70799235Y-88722767D01*
X70662934Y-89408000D01*
X70799235Y-90093233D01*
X71187389Y-90674145D01*
X71193158Y-90678000D01*
X71187389Y-90681855D01*
X70799235Y-91262767D01*
X70662934Y-91948000D01*
X70799235Y-92633233D01*
X70996838Y-92928966D01*
X70968967Y-92946901D01*
X70757304Y-93256679D01*
X70682839Y-93624400D01*
X70682839Y-95351600D01*
X70747478Y-95695126D01*
X70950501Y-96010633D01*
X71260279Y-96222296D01*
X71628000Y-96296761D01*
X73660000Y-96296761D01*
X74003526Y-96232122D01*
X74319033Y-96029099D01*
X74530696Y-95719321D01*
X74605161Y-95351600D01*
X74605161Y-93624400D01*
X74540522Y-93280874D01*
X74337499Y-92965367D01*
X74316765Y-92951200D01*
X75530460Y-92951200D01*
X75998628Y-93419367D01*
X75998630Y-93419370D01*
X76272404Y-93602299D01*
X76324092Y-93636836D01*
X76409064Y-93653738D01*
X76344166Y-93980000D01*
X76475626Y-94640894D01*
X76849993Y-95201173D01*
X76923068Y-95250000D01*
X76849993Y-95298827D01*
X76475626Y-95859106D01*
X76344166Y-96520000D01*
X76475626Y-97180894D01*
X76849993Y-97741173D01*
X76923068Y-97790000D01*
X76849993Y-97838827D01*
X76475626Y-98399106D01*
X76344166Y-99060000D01*
X76475626Y-99720894D01*
X76849993Y-100281173D01*
X76923068Y-100330000D01*
X76849993Y-100378827D01*
X76475626Y-100939106D01*
X76344166Y-101600000D01*
X76475626Y-102260894D01*
X76849993Y-102821173D01*
X76923068Y-102870000D01*
X76849993Y-102918827D01*
X76704348Y-103136800D01*
X74276306Y-103136800D01*
X74100611Y-102873855D01*
X73801940Y-102674289D01*
X73994732Y-102502036D01*
X74248709Y-101974791D01*
X74251358Y-101959026D01*
X74130217Y-101727000D01*
X72771000Y-101727000D01*
X72771000Y-101747000D01*
X72517000Y-101747000D01*
X72517000Y-101727000D01*
X71157783Y-101727000D01*
X71036642Y-101959026D01*
X71039291Y-101974791D01*
X71293268Y-102502036D01*
X71486060Y-102674289D01*
X71187389Y-102873855D01*
X70799235Y-103454767D01*
X70662934Y-104140000D01*
X70799235Y-104825233D01*
X71187389Y-105406145D01*
X71193158Y-105410000D01*
X71187389Y-105413855D01*
X70799235Y-105994767D01*
X70662934Y-106680000D01*
X70799235Y-107365233D01*
X71187389Y-107946145D01*
X71193158Y-107950000D01*
X71187389Y-107953855D01*
X70799235Y-108534767D01*
X70662934Y-109220000D01*
X70799235Y-109905233D01*
X70996838Y-110200966D01*
X70968967Y-110218901D01*
X70757304Y-110528679D01*
X70682839Y-110896400D01*
X70682839Y-112623600D01*
X70747478Y-112967126D01*
X70950501Y-113282633D01*
X71260279Y-113494296D01*
X71628000Y-113568761D01*
X73034022Y-113568761D01*
X73204628Y-113739367D01*
X73204630Y-113739370D01*
X73469114Y-113916092D01*
X73530092Y-113956836D01*
X73914000Y-114033201D01*
X73914005Y-114033200D01*
X76397236Y-114033200D01*
X76344166Y-114300000D01*
X76475626Y-114960894D01*
X76849993Y-115521173D01*
X77410272Y-115895540D01*
X78071166Y-116027000D01*
X78138834Y-116027000D01*
X78799728Y-115895540D01*
X79360007Y-115521173D01*
X79375000Y-115498734D01*
X79389993Y-115521173D01*
X79950272Y-115895540D01*
X80611166Y-116027000D01*
X80678834Y-116027000D01*
X81339728Y-115895540D01*
X81900007Y-115521173D01*
X81915000Y-115498734D01*
X81929993Y-115521173D01*
X82490272Y-115895540D01*
X83151166Y-116027000D01*
X83218834Y-116027000D01*
X83879728Y-115895540D01*
X84440007Y-115521173D01*
X84648931Y-115208497D01*
X84869866Y-115452389D01*
X85375959Y-115691914D01*
X85598000Y-115570629D01*
X85598000Y-114427000D01*
X85578000Y-114427000D01*
X85578000Y-114173000D01*
X85598000Y-114173000D01*
X85598000Y-114153000D01*
X85852000Y-114153000D01*
X85852000Y-114173000D01*
X85864800Y-114173000D01*
X85864800Y-114427000D01*
X85852000Y-114427000D01*
X85852000Y-115570629D01*
X85864800Y-115577621D01*
X85864800Y-115823995D01*
X85864799Y-115824000D01*
X85941164Y-116207908D01*
X86158630Y-116533370D01*
X87174630Y-117549370D01*
X87500092Y-117766836D01*
X87884000Y-117843201D01*
X87884005Y-117843200D01*
X104647995Y-117843200D01*
X104648000Y-117843201D01*
X104711502Y-117830569D01*
X104775000Y-117843200D01*
X121920000Y-117843200D01*
X122303908Y-117766836D01*
X122629370Y-117549370D01*
X122846836Y-117223908D01*
X122912029Y-116896161D01*
X122936000Y-116896161D01*
X123279526Y-116831522D01*
X123595033Y-116628499D01*
X123806696Y-116318721D01*
X123881161Y-115951000D01*
X123881161Y-113919000D01*
X123816522Y-113575474D01*
X123613499Y-113259967D01*
X123303721Y-113048304D01*
X122936000Y-112973839D01*
X120904000Y-112973839D01*
X120702343Y-113011783D01*
X120752423Y-112991041D01*
X121167389Y-112615134D01*
X121406914Y-112109041D01*
X121285629Y-111887000D01*
X120142000Y-111887000D01*
X120142000Y-111907000D01*
X119888000Y-111907000D01*
X119888000Y-111887000D01*
X119868000Y-111887000D01*
X119868000Y-111633000D01*
X119888000Y-111633000D01*
X119888000Y-110490085D01*
X120142000Y-110490085D01*
X120142000Y-111633000D01*
X121285629Y-111633000D01*
X121406914Y-111410959D01*
X121167389Y-110904866D01*
X120752423Y-110528959D01*
X120364039Y-110368096D01*
X120142000Y-110490085D01*
X119888000Y-110490085D01*
X119748200Y-110413278D01*
X119748200Y-108585000D01*
X119671836Y-108201092D01*
X119454370Y-107875630D01*
X119454367Y-107875628D01*
X117478815Y-105900075D01*
X118135894Y-105769374D01*
X118696173Y-105395007D01*
X118745000Y-105321932D01*
X118793827Y-105395007D01*
X119354106Y-105769374D01*
X120015000Y-105900834D01*
X120675894Y-105769374D01*
X121236173Y-105395007D01*
X121610540Y-104834728D01*
X121742000Y-104173834D01*
X121742000Y-104106166D01*
X121610540Y-103445272D01*
X121236173Y-102884993D01*
X120675894Y-102510626D01*
X120015000Y-102379166D01*
X119354106Y-102510626D01*
X118793827Y-102884993D01*
X118745000Y-102958068D01*
X118696173Y-102884993D01*
X118478200Y-102739348D01*
X118478200Y-101380540D01*
X119454367Y-100404372D01*
X119454370Y-100404370D01*
X119671836Y-100078908D01*
X119674961Y-100063200D01*
X119748201Y-99695000D01*
X119748200Y-99694995D01*
X119748200Y-99415268D01*
X120336913Y-99415781D01*
X120934569Y-99168835D01*
X121299917Y-98804124D01*
X121318173Y-98848199D01*
X121496802Y-99026827D01*
X121730191Y-99123500D01*
X122269250Y-99123500D01*
X122428000Y-98964750D01*
X122428000Y-97917000D01*
X122682000Y-97917000D01*
X122682000Y-98964750D01*
X122840750Y-99123500D01*
X123379809Y-99123500D01*
X123613198Y-99026827D01*
X123791827Y-98848199D01*
X123888500Y-98614810D01*
X123888500Y-98075750D01*
X123729750Y-97917000D01*
X122682000Y-97917000D01*
X122428000Y-97917000D01*
X122408000Y-97917000D01*
X122408000Y-97663000D01*
X122428000Y-97663000D01*
X122428000Y-96615250D01*
X122682000Y-96615250D01*
X122682000Y-97663000D01*
X123729750Y-97663000D01*
X123888500Y-97504250D01*
X123888500Y-96965190D01*
X123791827Y-96731801D01*
X123613198Y-96553173D01*
X123379809Y-96456500D01*
X122840750Y-96456500D01*
X122682000Y-96615250D01*
X122428000Y-96615250D01*
X122269250Y-96456500D01*
X121730191Y-96456500D01*
X121496802Y-96553173D01*
X121318173Y-96731801D01*
X121299778Y-96776210D01*
X120936974Y-96412772D01*
X120339750Y-96164783D01*
X119748200Y-96164267D01*
X119748200Y-92786722D01*
X119888000Y-92709915D01*
X119888000Y-91567000D01*
X120142000Y-91567000D01*
X120142000Y-92709915D01*
X120364039Y-92831904D01*
X120752423Y-92671041D01*
X121167389Y-92295134D01*
X121406914Y-91789041D01*
X121285629Y-91567000D01*
X120142000Y-91567000D01*
X119888000Y-91567000D01*
X119868000Y-91567000D01*
X119868000Y-91313000D01*
X119888000Y-91313000D01*
X119888000Y-90170085D01*
X120142000Y-90170085D01*
X120142000Y-91313000D01*
X121285629Y-91313000D01*
X121406914Y-91090959D01*
X121167389Y-90584866D01*
X120752423Y-90208959D01*
X120364039Y-90048096D01*
X120142000Y-90170085D01*
X119888000Y-90170085D01*
X119748200Y-90093278D01*
X119748200Y-87410540D01*
X120724367Y-86434372D01*
X120724370Y-86434370D01*
X120941836Y-86108908D01*
X121018201Y-85725000D01*
X121018200Y-85724995D01*
X121018200Y-85220652D01*
X121236173Y-85075007D01*
X121610540Y-84514728D01*
X121742000Y-83853834D01*
X121742000Y-83786166D01*
X121610540Y-83125272D01*
X121309302Y-82674438D01*
X121450970Y-82532770D01*
X121920000Y-82626066D01*
X122663554Y-82478164D01*
X123293908Y-82056974D01*
X123715098Y-81426620D01*
X123863000Y-80683066D01*
X123863000Y-80606934D01*
X123715098Y-79863380D01*
X123293908Y-79233026D01*
X122663554Y-78811836D01*
X121920000Y-78663934D01*
X121176446Y-78811836D01*
X121007390Y-78924796D01*
X120763721Y-78758304D01*
X120396000Y-78683839D01*
X120372029Y-78683839D01*
X120306836Y-78356092D01*
X120089370Y-78030630D01*
X119763908Y-77813164D01*
X119380000Y-77736800D01*
X102235000Y-77736800D01*
X101851092Y-77813164D01*
X101525630Y-78030630D01*
X101308164Y-78356092D01*
X101242971Y-78683839D01*
X101219000Y-78683839D01*
X100875474Y-78748478D01*
X100559967Y-78951501D01*
X100348304Y-79261279D01*
X100273839Y-79629000D01*
X100273839Y-81661000D01*
X100338478Y-82004526D01*
X100541501Y-82320033D01*
X100851279Y-82531696D01*
X101014264Y-82564701D01*
X101013827Y-82564993D01*
X100845575Y-82816800D01*
X98425005Y-82816800D01*
X98425000Y-82816799D01*
X98041092Y-82893164D01*
X97715630Y-83110630D01*
X97715628Y-83110633D01*
X95810630Y-85015630D01*
X95593164Y-85341092D01*
X95516799Y-85725000D01*
X95516800Y-85725005D01*
X95516800Y-101599995D01*
X95516799Y-101600000D01*
X95593164Y-101983908D01*
X95810630Y-102309370D01*
X98350628Y-104849367D01*
X98350630Y-104849370D01*
X98676092Y-105066836D01*
X99060000Y-105143200D01*
X100845575Y-105143200D01*
X101013827Y-105395007D01*
X101574106Y-105769374D01*
X102235000Y-105900834D01*
X102895894Y-105769374D01*
X103456173Y-105395007D01*
X103505000Y-105321932D01*
X103553827Y-105395007D01*
X104114106Y-105769374D01*
X104241539Y-105794722D01*
X102795630Y-107240630D01*
X102578164Y-107566092D01*
X102501799Y-107950000D01*
X102501800Y-107950005D01*
X102501800Y-110052236D01*
X102235000Y-109999166D01*
X101574106Y-110130626D01*
X101013827Y-110504993D01*
X100639460Y-111065272D01*
X100508000Y-111726166D01*
X100508000Y-111793834D01*
X100639460Y-112454728D01*
X101013827Y-113015007D01*
X101317611Y-113217989D01*
X100861092Y-113523026D01*
X100439902Y-114153380D01*
X100292000Y-114896934D01*
X100292000Y-114973066D01*
X100439902Y-115716620D01*
X100520204Y-115836800D01*
X94127638Y-115836800D01*
X94600007Y-115521173D01*
X94974374Y-114960894D01*
X95105834Y-114300000D01*
X94974374Y-113639106D01*
X94600007Y-113078827D01*
X94526932Y-113030000D01*
X94600007Y-112981173D01*
X94974374Y-112420894D01*
X95105834Y-111760000D01*
X94974374Y-111099106D01*
X94600007Y-110538827D01*
X94526932Y-110490000D01*
X94600007Y-110441173D01*
X94974374Y-109880894D01*
X95105834Y-109220000D01*
X94974374Y-108559106D01*
X94600007Y-107998827D01*
X94526932Y-107950000D01*
X94600007Y-107901173D01*
X94974374Y-107340894D01*
X95105834Y-106680000D01*
X94974374Y-106019106D01*
X94600007Y-105458827D01*
X94526932Y-105410000D01*
X94600007Y-105361173D01*
X94974374Y-104800894D01*
X95105834Y-104140000D01*
X94974374Y-103479106D01*
X94600007Y-102918827D01*
X94526932Y-102870000D01*
X94600007Y-102821173D01*
X94974374Y-102260894D01*
X95105834Y-101600000D01*
X94974374Y-100939106D01*
X94600007Y-100378827D01*
X94526932Y-100330000D01*
X94600007Y-100281173D01*
X94974374Y-99720894D01*
X95105834Y-99060000D01*
X94974374Y-98399106D01*
X94600007Y-97838827D01*
X94526932Y-97790000D01*
X94600007Y-97741173D01*
X94974374Y-97180894D01*
X95105834Y-96520000D01*
X94974374Y-95859106D01*
X94600007Y-95298827D01*
X94526932Y-95250000D01*
X94600007Y-95201173D01*
X94974374Y-94640894D01*
X95105834Y-93980000D01*
X94974374Y-93319106D01*
X94600007Y-92758827D01*
X94526932Y-92710000D01*
X94600007Y-92661173D01*
X94974374Y-92100894D01*
X95105834Y-91440000D01*
X94974374Y-90779106D01*
X94600007Y-90218827D01*
X94526932Y-90170000D01*
X94600007Y-90121173D01*
X94974374Y-89560894D01*
X95105834Y-88900000D01*
X94974374Y-88239106D01*
X94600007Y-87678827D01*
X94526932Y-87630000D01*
X94600007Y-87581173D01*
X94974374Y-87020894D01*
X95105834Y-86360000D01*
X94974374Y-85699106D01*
X94600007Y-85138827D01*
X94526932Y-85090000D01*
X94600007Y-85041173D01*
X94974374Y-84480894D01*
X95105834Y-83820000D01*
X94974374Y-83159106D01*
X94600007Y-82598827D01*
X94526932Y-82550000D01*
X94600007Y-82501173D01*
X94974374Y-81940894D01*
X95105834Y-81280000D01*
X94974374Y-80619106D01*
X94600007Y-80058827D01*
X94039728Y-79684460D01*
X93378834Y-79553000D01*
X93311166Y-79553000D01*
X92650272Y-79684460D01*
X92089993Y-80058827D01*
X91715626Y-80619106D01*
X91584166Y-81280000D01*
X91715626Y-81940894D01*
X92089993Y-82501173D01*
X92163068Y-82550000D01*
X92089993Y-82598827D01*
X91715626Y-83159106D01*
X91584166Y-83820000D01*
X91715626Y-84480894D01*
X92089993Y-85041173D01*
X92163068Y-85090000D01*
X92089993Y-85138827D01*
X91715626Y-85699106D01*
X91584166Y-86360000D01*
X91715626Y-87020894D01*
X92089993Y-87581173D01*
X92163068Y-87630000D01*
X92089993Y-87678827D01*
X91715626Y-88239106D01*
X91584166Y-88900000D01*
X91715626Y-89560894D01*
X92089993Y-90121173D01*
X92163068Y-90170000D01*
X92089993Y-90218827D01*
X91715626Y-90779106D01*
X91584166Y-91440000D01*
X91715626Y-92100894D01*
X92089993Y-92661173D01*
X92163068Y-92710000D01*
X92089993Y-92758827D01*
X91715626Y-93319106D01*
X91584166Y-93980000D01*
X91715626Y-94640894D01*
X92089993Y-95201173D01*
X92163068Y-95250000D01*
X92089993Y-95298827D01*
X91715626Y-95859106D01*
X91584166Y-96520000D01*
X91715626Y-97180894D01*
X92089993Y-97741173D01*
X92163068Y-97790000D01*
X92089993Y-97838827D01*
X91715626Y-98399106D01*
X91584166Y-99060000D01*
X91715626Y-99720894D01*
X92089993Y-100281173D01*
X92163068Y-100330000D01*
X92089993Y-100378827D01*
X91715626Y-100939106D01*
X91584166Y-101600000D01*
X91715626Y-102260894D01*
X92089993Y-102821173D01*
X92163068Y-102870000D01*
X92089993Y-102918827D01*
X91944348Y-103136800D01*
X88299539Y-103136800D01*
X87617200Y-102454460D01*
X87617200Y-96266005D01*
X87617201Y-96266000D01*
X87540836Y-95882092D01*
X87432076Y-95719321D01*
X87323370Y-95556630D01*
X87323367Y-95556628D01*
X81227370Y-89460630D01*
X80901908Y-89243164D01*
X80518000Y-89166799D01*
X80517995Y-89166800D01*
X79812764Y-89166800D01*
X79865834Y-88900000D01*
X79734374Y-88239106D01*
X79360007Y-87678827D01*
X79286932Y-87630000D01*
X79360007Y-87581173D01*
X79734374Y-87020894D01*
X79865834Y-86360000D01*
X79734374Y-85699106D01*
X79360007Y-85138827D01*
X79286932Y-85090000D01*
X79360007Y-85041173D01*
X79734374Y-84480894D01*
X79865834Y-83820000D01*
X79734374Y-83159106D01*
X79360007Y-82598827D01*
X79016987Y-82369628D01*
X79336041Y-82017423D01*
X79496904Y-81629039D01*
X79374915Y-81407000D01*
X78232000Y-81407000D01*
X78232000Y-81427000D01*
X77978000Y-81427000D01*
X77978000Y-81407000D01*
X76835085Y-81407000D01*
X76713096Y-81629039D01*
X76873959Y-82017423D01*
X77193013Y-82369628D01*
X76849993Y-82598827D01*
X76475626Y-83159106D01*
X76344166Y-83820000D01*
X76475626Y-84480894D01*
X76849993Y-85041173D01*
X76923068Y-85090000D01*
X76849993Y-85138827D01*
X76475626Y-85699106D01*
X76428598Y-85935533D01*
X76073000Y-85864799D01*
X76072995Y-85864800D01*
X74276306Y-85864800D01*
X74100611Y-85601855D01*
X73801940Y-85402289D01*
X73994732Y-85230036D01*
X74248709Y-84702791D01*
X74251358Y-84687026D01*
X74130217Y-84455000D01*
X72771000Y-84455000D01*
X72771000Y-84475000D01*
X72517000Y-84475000D01*
X72517000Y-84455000D01*
X71157783Y-84455000D01*
X71036642Y-84687026D01*
X71039291Y-84702791D01*
X71293268Y-85230036D01*
X71486060Y-85402289D01*
X71187389Y-85601855D01*
X70799235Y-86182767D01*
X70662934Y-86868000D01*
X70598000Y-86868000D01*
X70598000Y-83968974D01*
X71036642Y-83968974D01*
X71157783Y-84201000D01*
X72517000Y-84201000D01*
X72517000Y-82987076D01*
X72771000Y-82987076D01*
X72771000Y-84201000D01*
X74130217Y-84201000D01*
X74251358Y-83968974D01*
X74248709Y-83953209D01*
X73994732Y-83425964D01*
X73558320Y-83036046D01*
X73005913Y-82842816D01*
X72771000Y-82987076D01*
X72517000Y-82987076D01*
X72282087Y-82842816D01*
X71729680Y-83036046D01*
X71293268Y-83425964D01*
X71039291Y-83953209D01*
X71036642Y-83968974D01*
X70598000Y-83968974D01*
X70598000Y-80930961D01*
X76713096Y-80930961D01*
X76835085Y-81153000D01*
X77978000Y-81153000D01*
X77978000Y-80009371D01*
X78232000Y-80009371D01*
X78232000Y-81153000D01*
X79374915Y-81153000D01*
X79496904Y-80930961D01*
X79336041Y-80542577D01*
X78960134Y-80127611D01*
X78454041Y-79888086D01*
X78232000Y-80009371D01*
X77978000Y-80009371D01*
X77755959Y-79888086D01*
X77249866Y-80127611D01*
X76873959Y-80542577D01*
X76713096Y-80930961D01*
X70598000Y-80930961D01*
X70598000Y-77710000D01*
X124982000Y-77710000D01*
X124982000Y-118378000D01*
X124982000Y-118378000D01*
G37*
X124982000Y-118378000D02*
X70598000Y-118378000D01*
X70598000Y-101240974D01*
X71036642Y-101240974D01*
X71157783Y-101473000D01*
X72517000Y-101473000D01*
X72517000Y-100259076D01*
X72771000Y-100259076D01*
X72771000Y-101473000D01*
X74130217Y-101473000D01*
X74251358Y-101240974D01*
X74248709Y-101225209D01*
X73994732Y-100697964D01*
X73558320Y-100308046D01*
X73005913Y-100114816D01*
X72771000Y-100259076D01*
X72517000Y-100259076D01*
X72282087Y-100114816D01*
X71729680Y-100308046D01*
X71293268Y-100697964D01*
X71039291Y-101225209D01*
X71036642Y-101240974D01*
X70598000Y-101240974D01*
X70598000Y-86868000D01*
X70662934Y-86868000D01*
X70799235Y-87553233D01*
X71187389Y-88134145D01*
X71193158Y-88138000D01*
X71187389Y-88141855D01*
X70799235Y-88722767D01*
X70662934Y-89408000D01*
X70799235Y-90093233D01*
X71187389Y-90674145D01*
X71193158Y-90678000D01*
X71187389Y-90681855D01*
X70799235Y-91262767D01*
X70662934Y-91948000D01*
X70799235Y-92633233D01*
X70996838Y-92928966D01*
X70968967Y-92946901D01*
X70757304Y-93256679D01*
X70682839Y-93624400D01*
X70682839Y-95351600D01*
X70747478Y-95695126D01*
X70950501Y-96010633D01*
X71260279Y-96222296D01*
X71628000Y-96296761D01*
X73660000Y-96296761D01*
X74003526Y-96232122D01*
X74319033Y-96029099D01*
X74530696Y-95719321D01*
X74605161Y-95351600D01*
X74605161Y-93624400D01*
X74540522Y-93280874D01*
X74337499Y-92965367D01*
X74316765Y-92951200D01*
X75530460Y-92951200D01*
X75998628Y-93419367D01*
X75998630Y-93419370D01*
X76272404Y-93602299D01*
X76324092Y-93636836D01*
X76409064Y-93653738D01*
X76344166Y-93980000D01*
X76475626Y-94640894D01*
X76849993Y-95201173D01*
X76923068Y-95250000D01*
X76849993Y-95298827D01*
X76475626Y-95859106D01*
X76344166Y-96520000D01*
X76475626Y-97180894D01*
X76849993Y-97741173D01*
X76923068Y-97790000D01*
X76849993Y-97838827D01*
X76475626Y-98399106D01*
X76344166Y-99060000D01*
X76475626Y-99720894D01*
X76849993Y-100281173D01*
X76923068Y-100330000D01*
X76849993Y-100378827D01*
X76475626Y-100939106D01*
X76344166Y-101600000D01*
X76475626Y-102260894D01*
X76849993Y-102821173D01*
X76923068Y-102870000D01*
X76849993Y-102918827D01*
X76704348Y-103136800D01*
X74276306Y-103136800D01*
X74100611Y-102873855D01*
X73801940Y-102674289D01*
X73994732Y-102502036D01*
X74248709Y-101974791D01*
X74251358Y-101959026D01*
X74130217Y-101727000D01*
X72771000Y-101727000D01*
X72771000Y-101747000D01*
X72517000Y-101747000D01*
X72517000Y-101727000D01*
X71157783Y-101727000D01*
X71036642Y-101959026D01*
X71039291Y-101974791D01*
X71293268Y-102502036D01*
X71486060Y-102674289D01*
X71187389Y-102873855D01*
X70799235Y-103454767D01*
X70662934Y-104140000D01*
X70799235Y-104825233D01*
X71187389Y-105406145D01*
X71193158Y-105410000D01*
X71187389Y-105413855D01*
X70799235Y-105994767D01*
X70662934Y-106680000D01*
X70799235Y-107365233D01*
X71187389Y-107946145D01*
X71193158Y-107950000D01*
X71187389Y-107953855D01*
X70799235Y-108534767D01*
X70662934Y-109220000D01*
X70799235Y-109905233D01*
X70996838Y-110200966D01*
X70968967Y-110218901D01*
X70757304Y-110528679D01*
X70682839Y-110896400D01*
X70682839Y-112623600D01*
X70747478Y-112967126D01*
X70950501Y-113282633D01*
X71260279Y-113494296D01*
X71628000Y-113568761D01*
X73034022Y-113568761D01*
X73204628Y-113739367D01*
X73204630Y-113739370D01*
X73469114Y-113916092D01*
X73530092Y-113956836D01*
X73914000Y-114033201D01*
X73914005Y-114033200D01*
X76397236Y-114033200D01*
X76344166Y-114300000D01*
X76475626Y-114960894D01*
X76849993Y-115521173D01*
X77410272Y-115895540D01*
X78071166Y-116027000D01*
X78138834Y-116027000D01*
X78799728Y-115895540D01*
X79360007Y-115521173D01*
X79375000Y-115498734D01*
X79389993Y-115521173D01*
X79950272Y-115895540D01*
X80611166Y-116027000D01*
X80678834Y-116027000D01*
X81339728Y-115895540D01*
X81900007Y-115521173D01*
X81915000Y-115498734D01*
X81929993Y-115521173D01*
X82490272Y-115895540D01*
X83151166Y-116027000D01*
X83218834Y-116027000D01*
X83879728Y-115895540D01*
X84440007Y-115521173D01*
X84648931Y-115208497D01*
X84869866Y-115452389D01*
X85375959Y-115691914D01*
X85598000Y-115570629D01*
X85598000Y-114427000D01*
X85578000Y-114427000D01*
X85578000Y-114173000D01*
X85598000Y-114173000D01*
X85598000Y-114153000D01*
X85852000Y-114153000D01*
X85852000Y-114173000D01*
X85864800Y-114173000D01*
X85864800Y-114427000D01*
X85852000Y-114427000D01*
X85852000Y-115570629D01*
X85864800Y-115577621D01*
X85864800Y-115823995D01*
X85864799Y-115824000D01*
X85941164Y-116207908D01*
X86158630Y-116533370D01*
X87174630Y-117549370D01*
X87500092Y-117766836D01*
X87884000Y-117843201D01*
X87884005Y-117843200D01*
X104647995Y-117843200D01*
X104648000Y-117843201D01*
X104711502Y-117830569D01*
X104775000Y-117843200D01*
X121920000Y-117843200D01*
X122303908Y-117766836D01*
X122629370Y-117549370D01*
X122846836Y-117223908D01*
X122912029Y-116896161D01*
X122936000Y-116896161D01*
X123279526Y-116831522D01*
X123595033Y-116628499D01*
X123806696Y-116318721D01*
X123881161Y-115951000D01*
X123881161Y-113919000D01*
X123816522Y-113575474D01*
X123613499Y-113259967D01*
X123303721Y-113048304D01*
X122936000Y-112973839D01*
X120904000Y-112973839D01*
X120702343Y-113011783D01*
X120752423Y-112991041D01*
X121167389Y-112615134D01*
X121406914Y-112109041D01*
X121285629Y-111887000D01*
X120142000Y-111887000D01*
X120142000Y-111907000D01*
X119888000Y-111907000D01*
X119888000Y-111887000D01*
X119868000Y-111887000D01*
X119868000Y-111633000D01*
X119888000Y-111633000D01*
X119888000Y-110490085D01*
X120142000Y-110490085D01*
X120142000Y-111633000D01*
X121285629Y-111633000D01*
X121406914Y-111410959D01*
X121167389Y-110904866D01*
X120752423Y-110528959D01*
X120364039Y-110368096D01*
X120142000Y-110490085D01*
X119888000Y-110490085D01*
X119748200Y-110413278D01*
X119748200Y-108585000D01*
X119671836Y-108201092D01*
X119454370Y-107875630D01*
X119454367Y-107875628D01*
X117478815Y-105900075D01*
X118135894Y-105769374D01*
X118696173Y-105395007D01*
X118745000Y-105321932D01*
X118793827Y-105395007D01*
X119354106Y-105769374D01*
X120015000Y-105900834D01*
X120675894Y-105769374D01*
X121236173Y-105395007D01*
X121610540Y-104834728D01*
X121742000Y-104173834D01*
X121742000Y-104106166D01*
X121610540Y-103445272D01*
X121236173Y-102884993D01*
X120675894Y-102510626D01*
X120015000Y-102379166D01*
X119354106Y-102510626D01*
X118793827Y-102884993D01*
X118745000Y-102958068D01*
X118696173Y-102884993D01*
X118478200Y-102739348D01*
X118478200Y-101380540D01*
X119454367Y-100404372D01*
X119454370Y-100404370D01*
X119671836Y-100078908D01*
X119674961Y-100063200D01*
X119748201Y-99695000D01*
X119748200Y-99694995D01*
X119748200Y-99415268D01*
X120336913Y-99415781D01*
X120934569Y-99168835D01*
X121299917Y-98804124D01*
X121318173Y-98848199D01*
X121496802Y-99026827D01*
X121730191Y-99123500D01*
X122269250Y-99123500D01*
X122428000Y-98964750D01*
X122428000Y-97917000D01*
X122682000Y-97917000D01*
X122682000Y-98964750D01*
X122840750Y-99123500D01*
X123379809Y-99123500D01*
X123613198Y-99026827D01*
X123791827Y-98848199D01*
X123888500Y-98614810D01*
X123888500Y-98075750D01*
X123729750Y-97917000D01*
X122682000Y-97917000D01*
X122428000Y-97917000D01*
X122408000Y-97917000D01*
X122408000Y-97663000D01*
X122428000Y-97663000D01*
X122428000Y-96615250D01*
X122682000Y-96615250D01*
X122682000Y-97663000D01*
X123729750Y-97663000D01*
X123888500Y-97504250D01*
X123888500Y-96965190D01*
X123791827Y-96731801D01*
X123613198Y-96553173D01*
X123379809Y-96456500D01*
X122840750Y-96456500D01*
X122682000Y-96615250D01*
X122428000Y-96615250D01*
X122269250Y-96456500D01*
X121730191Y-96456500D01*
X121496802Y-96553173D01*
X121318173Y-96731801D01*
X121299778Y-96776210D01*
X120936974Y-96412772D01*
X120339750Y-96164783D01*
X119748200Y-96164267D01*
X119748200Y-92786722D01*
X119888000Y-92709915D01*
X119888000Y-91567000D01*
X120142000Y-91567000D01*
X120142000Y-92709915D01*
X120364039Y-92831904D01*
X120752423Y-92671041D01*
X121167389Y-92295134D01*
X121406914Y-91789041D01*
X121285629Y-91567000D01*
X120142000Y-91567000D01*
X119888000Y-91567000D01*
X119868000Y-91567000D01*
X119868000Y-91313000D01*
X119888000Y-91313000D01*
X119888000Y-90170085D01*
X120142000Y-90170085D01*
X120142000Y-91313000D01*
X121285629Y-91313000D01*
X121406914Y-91090959D01*
X121167389Y-90584866D01*
X120752423Y-90208959D01*
X120364039Y-90048096D01*
X120142000Y-90170085D01*
X119888000Y-90170085D01*
X119748200Y-90093278D01*
X119748200Y-87410540D01*
X120724367Y-86434372D01*
X120724370Y-86434370D01*
X120941836Y-86108908D01*
X121018201Y-85725000D01*
X121018200Y-85724995D01*
X121018200Y-85220652D01*
X121236173Y-85075007D01*
X121610540Y-84514728D01*
X121742000Y-83853834D01*
X121742000Y-83786166D01*
X121610540Y-83125272D01*
X121309302Y-82674438D01*
X121450970Y-82532770D01*
X121920000Y-82626066D01*
X122663554Y-82478164D01*
X123293908Y-82056974D01*
X123715098Y-81426620D01*
X123863000Y-80683066D01*
X123863000Y-80606934D01*
X123715098Y-79863380D01*
X123293908Y-79233026D01*
X122663554Y-78811836D01*
X121920000Y-78663934D01*
X121176446Y-78811836D01*
X121007390Y-78924796D01*
X120763721Y-78758304D01*
X120396000Y-78683839D01*
X120372029Y-78683839D01*
X120306836Y-78356092D01*
X120089370Y-78030630D01*
X119763908Y-77813164D01*
X119380000Y-77736800D01*
X102235000Y-77736800D01*
X101851092Y-77813164D01*
X101525630Y-78030630D01*
X101308164Y-78356092D01*
X101242971Y-78683839D01*
X101219000Y-78683839D01*
X100875474Y-78748478D01*
X100559967Y-78951501D01*
X100348304Y-79261279D01*
X100273839Y-79629000D01*
X100273839Y-81661000D01*
X100338478Y-82004526D01*
X100541501Y-82320033D01*
X100851279Y-82531696D01*
X101014264Y-82564701D01*
X101013827Y-82564993D01*
X100845575Y-82816800D01*
X98425005Y-82816800D01*
X98425000Y-82816799D01*
X98041092Y-82893164D01*
X97715630Y-83110630D01*
X97715628Y-83110633D01*
X95810630Y-85015630D01*
X95593164Y-85341092D01*
X95516799Y-85725000D01*
X95516800Y-85725005D01*
X95516800Y-101599995D01*
X95516799Y-101600000D01*
X95593164Y-101983908D01*
X95810630Y-102309370D01*
X98350628Y-104849367D01*
X98350630Y-104849370D01*
X98676092Y-105066836D01*
X99060000Y-105143200D01*
X100845575Y-105143200D01*
X101013827Y-105395007D01*
X101574106Y-105769374D01*
X102235000Y-105900834D01*
X102895894Y-105769374D01*
X103456173Y-105395007D01*
X103505000Y-105321932D01*
X103553827Y-105395007D01*
X104114106Y-105769374D01*
X104241539Y-105794722D01*
X102795630Y-107240630D01*
X102578164Y-107566092D01*
X102501799Y-107950000D01*
X102501800Y-107950005D01*
X102501800Y-110052236D01*
X102235000Y-109999166D01*
X101574106Y-110130626D01*
X101013827Y-110504993D01*
X100639460Y-111065272D01*
X100508000Y-111726166D01*
X100508000Y-111793834D01*
X100639460Y-112454728D01*
X101013827Y-113015007D01*
X101317611Y-113217989D01*
X100861092Y-113523026D01*
X100439902Y-114153380D01*
X100292000Y-114896934D01*
X100292000Y-114973066D01*
X100439902Y-115716620D01*
X100520204Y-115836800D01*
X94127638Y-115836800D01*
X94600007Y-115521173D01*
X94974374Y-114960894D01*
X95105834Y-114300000D01*
X94974374Y-113639106D01*
X94600007Y-113078827D01*
X94526932Y-113030000D01*
X94600007Y-112981173D01*
X94974374Y-112420894D01*
X95105834Y-111760000D01*
X94974374Y-111099106D01*
X94600007Y-110538827D01*
X94526932Y-110490000D01*
X94600007Y-110441173D01*
X94974374Y-109880894D01*
X95105834Y-109220000D01*
X94974374Y-108559106D01*
X94600007Y-107998827D01*
X94526932Y-107950000D01*
X94600007Y-107901173D01*
X94974374Y-107340894D01*
X95105834Y-106680000D01*
X94974374Y-106019106D01*
X94600007Y-105458827D01*
X94526932Y-105410000D01*
X94600007Y-105361173D01*
X94974374Y-104800894D01*
X95105834Y-104140000D01*
X94974374Y-103479106D01*
X94600007Y-102918827D01*
X94526932Y-102870000D01*
X94600007Y-102821173D01*
X94974374Y-102260894D01*
X95105834Y-101600000D01*
X94974374Y-100939106D01*
X94600007Y-100378827D01*
X94526932Y-100330000D01*
X94600007Y-100281173D01*
X94974374Y-99720894D01*
X95105834Y-99060000D01*
X94974374Y-98399106D01*
X94600007Y-97838827D01*
X94526932Y-97790000D01*
X94600007Y-97741173D01*
X94974374Y-97180894D01*
X95105834Y-96520000D01*
X94974374Y-95859106D01*
X94600007Y-95298827D01*
X94526932Y-95250000D01*
X94600007Y-95201173D01*
X94974374Y-94640894D01*
X95105834Y-93980000D01*
X94974374Y-93319106D01*
X94600007Y-92758827D01*
X94526932Y-92710000D01*
X94600007Y-92661173D01*
X94974374Y-92100894D01*
X95105834Y-91440000D01*
X94974374Y-90779106D01*
X94600007Y-90218827D01*
X94526932Y-90170000D01*
X94600007Y-90121173D01*
X94974374Y-89560894D01*
X95105834Y-88900000D01*
X94974374Y-88239106D01*
X94600007Y-87678827D01*
X94526932Y-87630000D01*
X94600007Y-87581173D01*
X94974374Y-87020894D01*
X95105834Y-86360000D01*
X94974374Y-85699106D01*
X94600007Y-85138827D01*
X94526932Y-85090000D01*
X94600007Y-85041173D01*
X94974374Y-84480894D01*
X95105834Y-83820000D01*
X94974374Y-83159106D01*
X94600007Y-82598827D01*
X94526932Y-82550000D01*
X94600007Y-82501173D01*
X94974374Y-81940894D01*
X95105834Y-81280000D01*
X94974374Y-80619106D01*
X94600007Y-80058827D01*
X94039728Y-79684460D01*
X93378834Y-79553000D01*
X93311166Y-79553000D01*
X92650272Y-79684460D01*
X92089993Y-80058827D01*
X91715626Y-80619106D01*
X91584166Y-81280000D01*
X91715626Y-81940894D01*
X92089993Y-82501173D01*
X92163068Y-82550000D01*
X92089993Y-82598827D01*
X91715626Y-83159106D01*
X91584166Y-83820000D01*
X91715626Y-84480894D01*
X92089993Y-85041173D01*
X92163068Y-85090000D01*
X92089993Y-85138827D01*
X91715626Y-85699106D01*
X91584166Y-86360000D01*
X91715626Y-87020894D01*
X92089993Y-87581173D01*
X92163068Y-87630000D01*
X92089993Y-87678827D01*
X91715626Y-88239106D01*
X91584166Y-88900000D01*
X91715626Y-89560894D01*
X92089993Y-90121173D01*
X92163068Y-90170000D01*
X92089993Y-90218827D01*
X91715626Y-90779106D01*
X91584166Y-91440000D01*
X91715626Y-92100894D01*
X92089993Y-92661173D01*
X92163068Y-92710000D01*
X92089993Y-92758827D01*
X91715626Y-93319106D01*
X91584166Y-93980000D01*
X91715626Y-94640894D01*
X92089993Y-95201173D01*
X92163068Y-95250000D01*
X92089993Y-95298827D01*
X91715626Y-95859106D01*
X91584166Y-96520000D01*
X91715626Y-97180894D01*
X92089993Y-97741173D01*
X92163068Y-97790000D01*
X92089993Y-97838827D01*
X91715626Y-98399106D01*
X91584166Y-99060000D01*
X91715626Y-99720894D01*
X92089993Y-100281173D01*
X92163068Y-100330000D01*
X92089993Y-100378827D01*
X91715626Y-100939106D01*
X91584166Y-101600000D01*
X91715626Y-102260894D01*
X92089993Y-102821173D01*
X92163068Y-102870000D01*
X92089993Y-102918827D01*
X91944348Y-103136800D01*
X88299539Y-103136800D01*
X87617200Y-102454460D01*
X87617200Y-96266005D01*
X87617201Y-96266000D01*
X87540836Y-95882092D01*
X87432076Y-95719321D01*
X87323370Y-95556630D01*
X87323367Y-95556628D01*
X81227370Y-89460630D01*
X80901908Y-89243164D01*
X80518000Y-89166799D01*
X80517995Y-89166800D01*
X79812764Y-89166800D01*
X79865834Y-88900000D01*
X79734374Y-88239106D01*
X79360007Y-87678827D01*
X79286932Y-87630000D01*
X79360007Y-87581173D01*
X79734374Y-87020894D01*
X79865834Y-86360000D01*
X79734374Y-85699106D01*
X79360007Y-85138827D01*
X79286932Y-85090000D01*
X79360007Y-85041173D01*
X79734374Y-84480894D01*
X79865834Y-83820000D01*
X79734374Y-83159106D01*
X79360007Y-82598827D01*
X79016987Y-82369628D01*
X79336041Y-82017423D01*
X79496904Y-81629039D01*
X79374915Y-81407000D01*
X78232000Y-81407000D01*
X78232000Y-81427000D01*
X77978000Y-81427000D01*
X77978000Y-81407000D01*
X76835085Y-81407000D01*
X76713096Y-81629039D01*
X76873959Y-82017423D01*
X77193013Y-82369628D01*
X76849993Y-82598827D01*
X76475626Y-83159106D01*
X76344166Y-83820000D01*
X76475626Y-84480894D01*
X76849993Y-85041173D01*
X76923068Y-85090000D01*
X76849993Y-85138827D01*
X76475626Y-85699106D01*
X76428598Y-85935533D01*
X76073000Y-85864799D01*
X76072995Y-85864800D01*
X74276306Y-85864800D01*
X74100611Y-85601855D01*
X73801940Y-85402289D01*
X73994732Y-85230036D01*
X74248709Y-84702791D01*
X74251358Y-84687026D01*
X74130217Y-84455000D01*
X72771000Y-84455000D01*
X72771000Y-84475000D01*
X72517000Y-84475000D01*
X72517000Y-84455000D01*
X71157783Y-84455000D01*
X71036642Y-84687026D01*
X71039291Y-84702791D01*
X71293268Y-85230036D01*
X71486060Y-85402289D01*
X71187389Y-85601855D01*
X70799235Y-86182767D01*
X70662934Y-86868000D01*
X70598000Y-86868000D01*
X70598000Y-83968974D01*
X71036642Y-83968974D01*
X71157783Y-84201000D01*
X72517000Y-84201000D01*
X72517000Y-82987076D01*
X72771000Y-82987076D01*
X72771000Y-84201000D01*
X74130217Y-84201000D01*
X74251358Y-83968974D01*
X74248709Y-83953209D01*
X73994732Y-83425964D01*
X73558320Y-83036046D01*
X73005913Y-82842816D01*
X72771000Y-82987076D01*
X72517000Y-82987076D01*
X72282087Y-82842816D01*
X71729680Y-83036046D01*
X71293268Y-83425964D01*
X71039291Y-83953209D01*
X71036642Y-83968974D01*
X70598000Y-83968974D01*
X70598000Y-80930961D01*
X76713096Y-80930961D01*
X76835085Y-81153000D01*
X77978000Y-81153000D01*
X77978000Y-80009371D01*
X78232000Y-80009371D01*
X78232000Y-81153000D01*
X79374915Y-81153000D01*
X79496904Y-80930961D01*
X79336041Y-80542577D01*
X78960134Y-80127611D01*
X78454041Y-79888086D01*
X78232000Y-80009371D01*
X77978000Y-80009371D01*
X77755959Y-79888086D01*
X77249866Y-80127611D01*
X76873959Y-80542577D01*
X76713096Y-80930961D01*
X70598000Y-80930961D01*
X70598000Y-77710000D01*
X124982000Y-77710000D01*
X124982000Y-118378000D01*
M02*
