G04 #@! TF.FileFunction,Legend,Bot*
%FSLAX46Y46*%
G04 Gerber Fmt 4.6, Leading zero omitted, Abs format (unit mm)*
G04 Created by KiCad (PCBNEW (2015-12-02 BZR 6341, Git dd06abf)-product) date 27/12/2015 22:57:57*
%MOMM*%
G01*
G04 APERTURE LIST*
%ADD10C,0.100000*%
%ADD11C,0.300000*%
G04 APERTURE END LIST*
D10*
D11*
X155505476Y-90607858D02*
X154255476Y-90607858D01*
X155505476Y-91143572D02*
X154850714Y-91143572D01*
X154731667Y-91084049D01*
X154672143Y-90965001D01*
X154672143Y-90786429D01*
X154731667Y-90667382D01*
X154791190Y-90607858D01*
X154672143Y-91560239D02*
X154672143Y-92036429D01*
X154255476Y-91738810D02*
X155326905Y-91738810D01*
X155445952Y-91798334D01*
X155505476Y-91917381D01*
X155505476Y-92036429D01*
X154672143Y-92274525D02*
X154672143Y-92750715D01*
X154255476Y-92453096D02*
X155326905Y-92453096D01*
X155445952Y-92512620D01*
X155505476Y-92631667D01*
X155505476Y-92750715D01*
X154672143Y-93167382D02*
X155922143Y-93167382D01*
X154731667Y-93167382D02*
X154672143Y-93286430D01*
X154672143Y-93524525D01*
X154731667Y-93643573D01*
X154791190Y-93703096D01*
X154910238Y-93762620D01*
X155267381Y-93762620D01*
X155386429Y-93703096D01*
X155445952Y-93643573D01*
X155505476Y-93524525D01*
X155505476Y-93286430D01*
X155445952Y-93167382D01*
X155445952Y-94238810D02*
X155505476Y-94357858D01*
X155505476Y-94595953D01*
X155445952Y-94715001D01*
X155326905Y-94774525D01*
X155267381Y-94774525D01*
X155148333Y-94715001D01*
X155088810Y-94595953D01*
X155088810Y-94417382D01*
X155029286Y-94298334D01*
X154910238Y-94238810D01*
X154850714Y-94238810D01*
X154731667Y-94298334D01*
X154672143Y-94417382D01*
X154672143Y-94595953D01*
X154731667Y-94715001D01*
X155386429Y-95310239D02*
X155445952Y-95369763D01*
X155505476Y-95310239D01*
X155445952Y-95250715D01*
X155386429Y-95310239D01*
X155505476Y-95310239D01*
X154731667Y-95310239D02*
X154791190Y-95369763D01*
X154850714Y-95310239D01*
X154791190Y-95250715D01*
X154731667Y-95310239D01*
X154850714Y-95310239D01*
X154195952Y-96798334D02*
X155803095Y-95726906D01*
X154195952Y-98107858D02*
X155803095Y-97036430D01*
X154672143Y-99060239D02*
X155684048Y-99060239D01*
X155803095Y-99000716D01*
X155862619Y-98941192D01*
X155922143Y-98822144D01*
X155922143Y-98643573D01*
X155862619Y-98524525D01*
X155445952Y-99060239D02*
X155505476Y-98941192D01*
X155505476Y-98703096D01*
X155445952Y-98584049D01*
X155386429Y-98524525D01*
X155267381Y-98465001D01*
X154910238Y-98465001D01*
X154791190Y-98524525D01*
X154731667Y-98584049D01*
X154672143Y-98703096D01*
X154672143Y-98941192D01*
X154731667Y-99060239D01*
X155505476Y-99834048D02*
X155445952Y-99715001D01*
X155386429Y-99655477D01*
X155267381Y-99595953D01*
X154910238Y-99595953D01*
X154791190Y-99655477D01*
X154731667Y-99715001D01*
X154672143Y-99834048D01*
X154672143Y-100012620D01*
X154731667Y-100131668D01*
X154791190Y-100191191D01*
X154910238Y-100250715D01*
X155267381Y-100250715D01*
X155386429Y-100191191D01*
X155445952Y-100131668D01*
X155505476Y-100012620D01*
X155505476Y-99834048D01*
X155505476Y-100965000D02*
X155445952Y-100845953D01*
X155386429Y-100786429D01*
X155267381Y-100726905D01*
X154910238Y-100726905D01*
X154791190Y-100786429D01*
X154731667Y-100845953D01*
X154672143Y-100965000D01*
X154672143Y-101143572D01*
X154731667Y-101262620D01*
X154791190Y-101322143D01*
X154910238Y-101381667D01*
X155267381Y-101381667D01*
X155386429Y-101322143D01*
X155445952Y-101262620D01*
X155505476Y-101143572D01*
X155505476Y-100965000D01*
X155386429Y-101917381D02*
X155445952Y-101976905D01*
X155505476Y-101917381D01*
X155445952Y-101857857D01*
X155386429Y-101917381D01*
X155505476Y-101917381D01*
X154672143Y-103048333D02*
X155684048Y-103048333D01*
X155803095Y-102988810D01*
X155862619Y-102929286D01*
X155922143Y-102810238D01*
X155922143Y-102631667D01*
X155862619Y-102512619D01*
X155445952Y-103048333D02*
X155505476Y-102929286D01*
X155505476Y-102691190D01*
X155445952Y-102572143D01*
X155386429Y-102512619D01*
X155267381Y-102453095D01*
X154910238Y-102453095D01*
X154791190Y-102512619D01*
X154731667Y-102572143D01*
X154672143Y-102691190D01*
X154672143Y-102929286D01*
X154731667Y-103048333D01*
X155505476Y-103822142D02*
X155445952Y-103703095D01*
X155326905Y-103643571D01*
X154255476Y-103643571D01*
X154195952Y-105191190D02*
X155803095Y-104119762D01*
X154850714Y-106024524D02*
X154910238Y-106203095D01*
X154969762Y-106262619D01*
X155088810Y-106322143D01*
X155267381Y-106322143D01*
X155386429Y-106262619D01*
X155445952Y-106203095D01*
X155505476Y-106084048D01*
X155505476Y-105607857D01*
X154255476Y-105607857D01*
X154255476Y-106024524D01*
X154315000Y-106143571D01*
X154374524Y-106203095D01*
X154493571Y-106262619D01*
X154612619Y-106262619D01*
X154731667Y-106203095D01*
X154791190Y-106143571D01*
X154850714Y-106024524D01*
X154850714Y-105607857D01*
X154672143Y-106679286D02*
X154672143Y-107155476D01*
X155505476Y-106857857D02*
X154434048Y-106857857D01*
X154315000Y-106917381D01*
X154255476Y-107036428D01*
X154255476Y-107155476D01*
X154672143Y-107453095D02*
X155505476Y-107750714D01*
X154672143Y-108048334D02*
X155505476Y-107750714D01*
X155803095Y-107631667D01*
X155862619Y-107572143D01*
X155922143Y-107453095D01*
X155505476Y-108703095D02*
X155445952Y-108584048D01*
X155386429Y-108524524D01*
X155267381Y-108465000D01*
X154910238Y-108465000D01*
X154791190Y-108524524D01*
X154731667Y-108584048D01*
X154672143Y-108703095D01*
X154672143Y-108881667D01*
X154731667Y-109000715D01*
X154791190Y-109060238D01*
X154910238Y-109119762D01*
X155267381Y-109119762D01*
X155386429Y-109060238D01*
X155445952Y-109000715D01*
X155505476Y-108881667D01*
X155505476Y-108703095D01*
X154255476Y-109476905D02*
X155505476Y-109893571D01*
X154255476Y-110310238D01*
X154255476Y-110607857D02*
X155505476Y-111441191D01*
X154255476Y-111441191D02*
X155505476Y-110607857D01*
X148063332Y-119290714D02*
X147884761Y-119350238D01*
X147825237Y-119409762D01*
X147765713Y-119528810D01*
X147765713Y-119707381D01*
X147825237Y-119826429D01*
X147884761Y-119885952D01*
X148003808Y-119945476D01*
X148479999Y-119945476D01*
X148479999Y-118695476D01*
X148063332Y-118695476D01*
X147944285Y-118755000D01*
X147884761Y-118814524D01*
X147825237Y-118933571D01*
X147825237Y-119052619D01*
X147884761Y-119171667D01*
X147944285Y-119231190D01*
X148063332Y-119290714D01*
X148479999Y-119290714D01*
X146694285Y-119112143D02*
X146694285Y-119945476D01*
X147229999Y-119112143D02*
X147229999Y-119766905D01*
X147170475Y-119885952D01*
X147051428Y-119945476D01*
X146872856Y-119945476D01*
X146753808Y-119885952D01*
X146694285Y-119826429D01*
X146277618Y-119112143D02*
X145801428Y-119112143D01*
X146099047Y-118695476D02*
X146099047Y-119766905D01*
X146039523Y-119885952D01*
X145920476Y-119945476D01*
X145801428Y-119945476D01*
X145563332Y-119112143D02*
X145087142Y-119112143D01*
X145384761Y-118695476D02*
X145384761Y-119766905D01*
X145325237Y-119885952D01*
X145206190Y-119945476D01*
X145087142Y-119945476D01*
X144491904Y-119945476D02*
X144610951Y-119885952D01*
X144670475Y-119826429D01*
X144729999Y-119707381D01*
X144729999Y-119350238D01*
X144670475Y-119231190D01*
X144610951Y-119171667D01*
X144491904Y-119112143D01*
X144313332Y-119112143D01*
X144194284Y-119171667D01*
X144134761Y-119231190D01*
X144075237Y-119350238D01*
X144075237Y-119707381D01*
X144134761Y-119826429D01*
X144194284Y-119885952D01*
X144313332Y-119945476D01*
X144491904Y-119945476D01*
X143539523Y-119112143D02*
X143539523Y-119945476D01*
X143539523Y-119231190D02*
X143479999Y-119171667D01*
X143360952Y-119112143D01*
X143182380Y-119112143D01*
X143063332Y-119171667D01*
X143003809Y-119290714D01*
X143003809Y-119945476D01*
X141991904Y-119290714D02*
X141813333Y-119350238D01*
X141753809Y-119409762D01*
X141694285Y-119528810D01*
X141694285Y-119707381D01*
X141753809Y-119826429D01*
X141813333Y-119885952D01*
X141932380Y-119945476D01*
X142408571Y-119945476D01*
X142408571Y-118695476D01*
X141991904Y-118695476D01*
X141872857Y-118755000D01*
X141813333Y-118814524D01*
X141753809Y-118933571D01*
X141753809Y-119052619D01*
X141813333Y-119171667D01*
X141872857Y-119231190D01*
X141991904Y-119290714D01*
X142408571Y-119290714D01*
X140980000Y-119945476D02*
X141099047Y-119885952D01*
X141158571Y-119826429D01*
X141218095Y-119707381D01*
X141218095Y-119350238D01*
X141158571Y-119231190D01*
X141099047Y-119171667D01*
X140980000Y-119112143D01*
X140801428Y-119112143D01*
X140682380Y-119171667D01*
X140622857Y-119231190D01*
X140563333Y-119350238D01*
X140563333Y-119707381D01*
X140622857Y-119826429D01*
X140682380Y-119885952D01*
X140801428Y-119945476D01*
X140980000Y-119945476D01*
X140146667Y-119945476D02*
X139491905Y-119112143D01*
X140146667Y-119112143D02*
X139491905Y-119945476D01*
X138182381Y-119112143D02*
X137884762Y-119945476D01*
X137587142Y-119112143D01*
X136456190Y-119945476D02*
X137170476Y-119945476D01*
X136813333Y-119945476D02*
X136813333Y-118695476D01*
X136932381Y-118874048D01*
X137051428Y-118993095D01*
X137170476Y-119052619D01*
X135920476Y-119826429D02*
X135860952Y-119885952D01*
X135920476Y-119945476D01*
X135980000Y-119885952D01*
X135920476Y-119826429D01*
X135920476Y-119945476D01*
X135087143Y-118695476D02*
X134968095Y-118695476D01*
X134849047Y-118755000D01*
X134789524Y-118814524D01*
X134730000Y-118933571D01*
X134670476Y-119171667D01*
X134670476Y-119469286D01*
X134730000Y-119707381D01*
X134789524Y-119826429D01*
X134849047Y-119885952D01*
X134968095Y-119945476D01*
X135087143Y-119945476D01*
X135206190Y-119885952D01*
X135265714Y-119826429D01*
X135325238Y-119707381D01*
X135384762Y-119469286D01*
X135384762Y-119171667D01*
X135325238Y-118933571D01*
X135265714Y-118814524D01*
X135206190Y-118755000D01*
X135087143Y-118695476D01*
M02*
