M48
;DRILL file {KiCad (2015-12-02 BZR 6341, Git dd06abf)-product} date 27/12/2015 22:58:59
;FORMAT={-:-/ absolute / inch / decimal}
FMAT,2
INCH,TZ
T1C0.032
T2C0.039
T3C0.040
T4C0.118
%
G90
G05
M72
T1
X5.65Y-3.5
X5.65Y-3.6
X5.65Y-3.7
X5.65Y-3.8
X5.65Y-3.9
X5.65Y-4.
X5.65Y-4.1
X5.65Y-4.2
X5.65Y-4.3
X5.65Y-4.4
T2
X5.475Y-3.75
X5.475Y-4.15
T3
X5.25Y-3.4
X5.25Y-3.5
X5.25Y-3.6
X5.25Y-3.7
X5.25Y-3.8
X5.25Y-3.9
X5.25Y-4.
X5.25Y-4.1
X5.25Y-4.2
X5.25Y-4.3
X5.25Y-4.4
X5.25Y-4.5
X5.35Y-3.4
X5.35Y-4.5
X5.45Y-3.4
X5.45Y-4.5
X5.55Y-3.4
X5.55Y-4.5
X5.65Y-3.4
X5.65Y-4.5
X5.8Y-3.4
X5.8Y-3.5
X5.8Y-3.6
X5.8Y-3.7
X5.8Y-3.8
X5.8Y-3.9
X5.8Y-4.
X5.8Y-4.1
X5.8Y-4.2
X5.8Y-4.3
X5.8Y-4.4
X5.8Y-4.5
X5.9Y-3.4
X5.9Y-3.5
X5.9Y-3.6
X5.9Y-3.7
X5.9Y-3.8
X5.9Y-3.9
X5.9Y-4.
X5.9Y-4.1
X5.9Y-4.2
X5.9Y-4.3
X5.9Y-4.4
X5.9Y-4.5
T4
X5.075Y-3.25
X5.075Y-4.65
X6.05Y-3.25
X6.05Y-4.65
T0
M30
